<svg width="57" height="90" viewBox="0 0 57 90" fill="none" xmlns="http://www.w3.org/2000/svg">
<path d="M24.8125 16.875V17.375H25.3125H42.1875H42.6875V16.875V2.8125C42.6875 2.19919 42.9311 1.61099 43.3648 1.17732C43.7985 0.743638 44.3867 0.5 45 0.5C45.6133 0.5 46.2015 0.743638 46.6352 1.17732C47.0689 1.61099 47.3125 2.19919 47.3125 2.8125V16.875V17.375H47.8125H53.4375C54.0508 17.375 54.639 17.6186 55.0727 18.0523C55.5064 18.486 55.75 19.0742 55.75 19.6875V36.5625C55.75 41.6513 53.7285 46.5318 50.1301 50.1301C46.5318 53.7285 41.6513 55.75 36.5625 55.75H36.0648L36.0625 56.2477C36.0513 58.6864 36.0063 60.9828 35.8391 63.0726L35.8391 63.0727C35.6103 65.9411 35.1384 68.6249 34.099 70.9159L34.099 70.9159L34.0959 70.9231C33.0531 73.3207 31.2055 75.2787 28.8724 76.4588L28.8713 76.4594C26.4468 77.6933 23.4061 78.25 19.6875 78.25C13.9542 78.25 10.3738 80.1506 8.22021 82.4455C6.39897 84.369 5.31421 86.8667 5.14579 89.5H0.50926C0.628887 86.2493 1.91576 82.3909 4.84742 79.2725C7.98741 75.9423 12.839 73.625 19.6875 73.625C22.9993 73.625 25.2298 73.1245 26.766 72.3385C28.2324 71.5901 29.2018 70.5049 29.8849 69.0068L29.8851 69.0064C30.6012 67.4322 31.0123 65.3678 31.2222 62.7074C31.3756 60.7758 31.4206 58.6344 31.4319 56.2524L31.4342 55.7501L30.932 55.75C25.8441 55.7485 20.9651 53.7264 17.368 50.1282C13.7708 46.53 11.75 41.6504 11.75 36.5625V19.6875C11.75 19.0742 11.9936 18.486 12.4273 18.0523C12.861 17.6186 13.4492 17.375 14.0625 17.375H19.6875H20.1875V16.875V2.8125C20.1875 2.19919 20.4311 1.61099 20.8648 1.17732C21.2985 0.743638 21.8867 0.5 22.5 0.5C23.1133 0.5 23.7015 0.743638 24.1352 1.17732C24.5689 1.61099 24.8125 2.19919 24.8125 2.8125V16.875ZM16.875 22H16.375V22.5V36.5625C16.375 40.4247 17.9093 44.1287 20.6403 46.8597C23.3713 49.5907 27.0753 51.125 30.9375 51.125H36.5625C40.4247 51.125 44.1287 49.5907 46.8597 46.8597C49.5907 44.1287 51.125 40.4247 51.125 36.5625V22.5V22H50.625H16.875Z" stroke="url(#paint0_linear_1425_68447)"/>
<defs>
<linearGradient id="paint0_linear_1425_68447" x1="22.3015" y1="-8.38594" x2="24.4994" y2="124.114" gradientUnits="userSpaceOnUse">
<stop stop-color="#FFA7F6"/>
<stop offset="1" stop-color="#4E4AFE"/>
</linearGradient>
</defs>
</svg>
