<svg width="349" height="389" viewBox="0 0 349 389" fill="none" xmlns="http://www.w3.org/2000/svg">
<path d="M78.125 39.5V1.25H270.875V39.5V40H271.375H329.636C339.977 40 348.375 48.398 348.375 58.7394V369.011C348.375 379.352 339.977 387.75 329.636 387.75H19.3644C9.02302 387.75 0.625 379.352 0.625 369.011V58.7394C0.625 48.398 9.02302 40 19.3644 40H77.625H78.125V39.5ZM78.125 78.25V77.75H77.625H38.875H38.375V78.25V349.5V350H38.875H310.125H310.625V349.5V78.25V77.75H310.125H271.375H270.875V78.25V116.5H78.125V78.25ZM233.125 39.5V39H232.625H116.375H115.875V39.5V78.25V78.75H116.375H232.625H233.125V78.25V39.5ZM115.875 272.5V310.25H78.125V272.5H115.875ZM115.875 214.375V252.125H78.125V214.375H115.875ZM115.875 156.25V194H78.125V156.25H115.875Z" stroke="url(#paint0_linear_1562_8872)"/>
<defs>
<linearGradient id="paint0_linear_1562_8872" x1="138.394" y1="-35.3561" x2="144.967" y2="535.211" gradientUnits="userSpaceOnUse">
<stop stop-color="#FFA7F6"/>
<stop offset="1" stop-color="#4E4AFE"/>
</linearGradient>
</defs>
</svg>
