<svg width="68" height="90" viewBox="0 0 68 90" fill="none" xmlns="http://www.w3.org/2000/svg">
<path d="M42.6875 5.625V5.125H42.1875H11.25C9.62555 5.125 8.06763 5.77031 6.91897 6.91897C5.77031 8.06763 5.125 9.62555 5.125 11.25V78.75C5.125 80.3745 5.77031 81.9324 6.91897 83.081C8.06763 84.2297 9.62555 84.875 11.25 84.875H56.25C57.8745 84.875 59.4324 84.2297 60.581 83.081C61.7297 81.9324 62.375 80.3745 62.375 78.75V25.3125V24.8125H61.875H50.625C48.5198 24.8125 46.5009 23.9762 45.0123 22.4877C43.5238 20.9991 42.6875 18.9802 42.6875 16.875V5.625ZM37.738 37.7374L37.7389 37.7365C37.9537 37.5212 38.2089 37.3503 38.4898 37.2337C38.7708 37.1171 39.0719 37.0571 39.3761 37.0571C39.6803 37.0571 39.9815 37.1171 40.2624 37.2337C40.5434 37.3503 40.7986 37.5212 41.0134 37.7365L41.0138 37.737L52.2638 48.987L52.2643 48.9874C52.4796 49.2022 52.6505 49.4574 52.7671 49.7383C52.8836 50.0193 52.9437 50.3205 52.9437 50.6247C52.9437 50.9288 52.8836 51.23 52.7671 51.511C52.6505 51.7919 52.4796 52.0471 52.2643 52.2619L52.2638 52.2623L41.0138 63.5123C40.5795 63.9467 39.9904 64.1907 39.3761 64.1907C38.7619 64.1907 38.1728 63.9467 37.7384 63.5123C37.3041 63.078 37.0601 62.4889 37.0601 61.8746C37.0601 61.2604 37.304 60.6714 37.7383 60.2371C37.7384 60.237 37.7384 60.237 37.7384 60.237L47.0027 50.9783L47.3566 50.6247L47.0027 50.271L37.7383 41.0122L37.738 41.0119C37.5226 40.7971 37.3518 40.5419 37.2352 40.261C37.1186 39.98 37.0586 39.6788 37.0586 39.3747C37.0586 39.0705 37.1186 38.7693 37.2352 38.4883C37.3518 38.2074 37.5226 37.9522 37.738 37.7374ZM29.7634 37.7365L29.7643 37.7374C29.9796 37.9522 30.1505 38.2074 30.2671 38.4883C30.3836 38.7693 30.4436 39.0705 30.4436 39.3747C30.4436 39.6788 30.3836 39.98 30.2671 40.261C30.1505 40.5419 29.9796 40.7971 29.7643 41.0119L29.7639 41.0122L20.4995 50.271L20.1457 50.6247L20.4995 50.9783L29.7638 60.237C29.7639 60.237 29.7639 60.237 29.7639 60.2371C30.1982 60.6714 30.4422 61.2604 30.4422 61.8746C30.4422 62.4889 30.1982 63.078 29.7638 63.5123C29.3295 63.9467 28.7404 64.1907 28.1261 64.1907C27.5119 64.1907 26.9228 63.9467 26.4884 63.5123L15.2384 52.2623L15.238 52.2619C15.0226 52.0471 14.8518 51.7919 14.7352 51.511C14.6186 51.23 14.5586 50.9288 14.5586 50.6247C14.5586 50.3205 14.6186 50.0193 14.7352 49.7383C14.8518 49.4574 15.0226 49.2022 15.238 48.9874L15.2384 48.987L26.4884 37.737L26.4889 37.7365C26.7037 37.5212 26.9589 37.3503 27.2398 37.2337C27.5208 37.1171 27.8219 37.0571 28.1261 37.0571C28.4303 37.0571 28.7315 37.1171 29.0124 37.2337C29.2934 37.3503 29.5486 37.5212 29.7634 37.7365ZM67 25.5196V78.75C67 81.6011 65.8674 84.3354 63.8514 86.3514C61.8354 88.3674 59.1011 89.5 56.25 89.5H11.25C8.39892 89.5 5.66462 88.3674 3.6486 86.3514C1.63259 84.3354 0.5 81.6011 0.5 78.75V11.25C0.5 8.39892 1.63259 5.66462 3.6486 3.6486C5.66462 1.63259 8.39892 0.5 11.25 0.5H41.9804L67 25.5196Z" stroke="url(#paint0_linear_1425_68450)"/>
<defs>
<linearGradient id="paint0_linear_1425_68450" x1="26.7618" y1="-8.38594" x2="28.5936" y2="124.125" gradientUnits="userSpaceOnUse">
<stop stop-color="#FFA7F6"/>
<stop offset="1" stop-color="#4E4AFE"/>
</linearGradient>
</defs>
</svg>
