<svg width="477" height="279" viewBox="0 0 477 279" fill="none" xmlns="http://www.w3.org/2000/svg">
<path fill-rule="evenodd" clip-rule="evenodd" d="M239.06 46.6787C243.346 46.7417 246.725 42.9734 246.791 38.5193L247.126 15.8491C247.192 11.3949 243.925 7.52831 239.641 7.46498L144.364 6.05688C144.147 6.05077 143.932 6.08747 143.73 6.16523C143.528 6.24298 143.343 6.36021 143.187 6.50979C143.03 6.65966 142.905 6.83902 142.818 7.03763C142.732 7.23596 142.686 7.44972 142.683 7.66623C142.68 7.88275 142.72 8.09773 142.8 8.29889C142.881 8.49977 143.001 8.6827 143.152 8.83714C143.305 8.9913 143.486 9.11391 143.685 9.19768C143.885 9.28145 144.099 9.32469 144.315 9.3248L239.592 10.7329C241.907 10.7671 243.9 12.9577 243.859 15.8007L243.523 38.4711C243.481 41.314 241.424 43.4449 239.109 43.4107L133.309 41.8471L134.277 43.7902C134.497 44.2331 134.678 44.6835 134.82 45.1375L239.06 46.6787ZM135.101 46.2901L239.043 47.8269C244.069 47.9009 247.865 43.5131 247.94 38.5363L248.274 15.8661C248.347 10.8894 244.682 6.39115 239.658 6.3168L144.388 4.90885C144.022 4.89953 143.659 4.96207 143.318 5.09349C142.974 5.22579 142.659 5.42537 142.392 5.68049C142.126 5.93534 141.914 6.2406 141.766 6.57878C141.619 6.91667 141.54 7.28075 141.535 7.64926C141.529 8.01805 141.597 8.38413 141.734 8.72632C141.872 9.06852 142.075 9.38006 142.334 9.64277C142.593 9.90549 142.901 10.1143 143.242 10.2567C143.579 10.3981 143.94 10.4715 144.306 10.4729L239.575 11.8811C241.132 11.9041 242.744 13.4435 242.71 15.7838L242.375 38.4541C242.341 40.7943 240.683 42.2855 239.126 42.2626L132.734 40.6901L128.906 33.0018C126.684 28.5363 121.313 26.2578 116.824 28.4929L110.767 31.5079L110.87 24.458C110.899 22.4696 112.71 20.8617 114.447 20.8075L220.728 22.3784C222.04 22.3979 222.758 22.8671 223.334 23.616C223.92 24.3795 224.283 25.5712 224.263 26.8489C224.244 28.1263 223.848 29.3069 223.239 30.0524C222.641 30.7841 221.91 31.2321 220.597 31.2129L143.914 30.0794C143.548 30.0701 143.185 30.1327 142.843 30.2641C142.499 30.3964 142.185 30.596 141.919 30.8508C141.652 31.1059 141.439 31.4112 141.291 31.7494C141.144 32.0873 141.066 32.4511 141.06 32.8199C141.055 33.1886 141.122 33.5547 141.26 33.8969C141.397 34.2392 141.601 34.5507 141.86 34.8134C142.119 35.0761 142.427 35.2847 142.767 35.4273C143.104 35.5687 143.466 35.6421 143.832 35.6434L220.516 36.7769C223.487 36.8207 225.967 35.4603 227.54 33.535C229.102 31.6247 229.793 29.2619 229.828 26.9311C229.862 24.6063 229.244 22.1711 227.738 20.2115C226.212 18.2267 223.766 16.8579 220.81 16.8142L114.247 15.2392L114.096 15.2787C114.077 15.2837 114.056 15.2892 114.037 15.2947C109.45 15.5521 105.38 19.3534 105.306 24.3752L105.16 34.2987L4.68582 84.3117C0.18715 86.5511 -1.17345 92.1921 1.0445 96.6478L11.1479 116.945C13.3659 121.401 18.6868 123.716 23.1855 121.476L108.482 79.0177C108.811 78.8583 109.106 78.6357 109.349 78.3624C109.593 78.0869 109.781 77.7654 109.901 77.4166C110.021 77.0679 110.07 76.6988 110.046 76.3309C110.022 75.963 109.924 75.6036 109.76 75.2735C109.596 74.9433 109.368 74.6492 109.089 74.4081C108.81 74.167 108.485 73.9838 108.135 73.869C107.785 73.7543 107.415 73.7103 107.047 73.7396C106.683 73.7688 106.328 73.8695 106.002 74.036L20.7057 116.495C19.312 117.188 17.1727 116.561 16.1297 114.465L6.02624 94.168C4.98324 92.0727 5.77199 89.9872 7.1656 89.2934L105.814 40.1886C107.105 43.4697 110.101 45.9203 113.796 45.9751L129.224 46.1269L129.295 46.2696C130.181 48.0498 129.31 50.3094 127.791 51.1541L32.6357 98.5203C31.461 99.1052 30.6081 99.0172 29.7527 98.616C28.881 98.207 28.0131 97.3139 27.4438 96.17C26.8744 95.0264 26.6849 93.7953 26.8843 92.8533C27.0797 91.929 27.5237 91.1955 28.6986 90.6107L97.3551 56.4351C97.6842 56.2757 97.9785 56.053 98.2216 55.7799C98.4666 55.5043 98.6544 55.1828 98.7741 54.834C98.8938 54.4852 98.9429 54.1162 98.9187 53.7483C98.8946 53.3804 98.7975 53.0209 98.6332 52.6909C98.4689 52.3608 98.2407 52.0666 97.9617 51.8255C97.6827 51.5844 97.3586 51.4012 97.0081 51.2864C96.6578 51.1717 96.2881 51.1277 95.9205 51.157C95.556 51.1863 95.2008 51.2869 94.8753 51.4533L26.2188 85.629C23.5582 86.9533 21.9788 89.3003 21.4641 91.7329C20.9536 94.1461 21.4232 96.5629 22.462 98.6498C23.498 100.731 25.1638 102.612 27.4019 103.662C29.6687 104.725 32.4699 104.819 35.1156 103.502L130.524 56.0099L130.64 55.9056C130.655 55.8921 130.67 55.8783 130.686 55.864C133.925 53.9543 135.766 50.094 135.101 46.2901ZM128.686 45.0468L127.047 41.7545L113.862 41.5595C111.547 41.5253 109.502 39.3339 109.544 36.4908L109.722 24.441C109.761 21.7831 112.127 19.7145 114.44 19.659L220.745 21.2301C222.425 21.2548 223.465 21.9026 224.244 22.9162C225.024 23.9295 225.434 25.3922 225.412 26.8656C225.389 28.3394 224.936 29.7893 224.128 30.7792C223.319 31.7692 222.26 32.3858 220.58 32.361L143.89 31.2275C143.674 31.2211 143.458 31.2581 143.256 31.3358C143.053 31.4136 142.869 31.5308 142.713 31.6804C142.556 31.8303 142.431 32.0096 142.345 32.2079C142.258 32.4066 142.212 32.6204 142.209 32.8369C142.205 33.0534 142.245 33.2684 142.325 33.4695C142.406 33.6704 142.526 33.8533 142.678 34.0078C142.83 34.1619 143.011 34.2845 143.211 34.3683C143.41 34.4521 143.625 34.495 143.842 34.4951L220.533 35.6287C223.128 35.667 225.283 34.4825 226.652 32.8081C228.019 31.1339 228.648 29.0352 228.679 26.9141C228.711 24.7927 228.146 22.6256 226.827 20.9116C225.509 19.1975 223.389 18.0008 220.793 17.9625L114.387 16.3896C114.334 16.4033 114.283 16.4192 114.232 16.4381C114.224 16.4384 114.216 16.4379 114.207 16.4377L114.195 16.4372L114.189 16.4371L114.181 16.4373C110.128 16.6224 106.52 19.9784 106.454 24.3922L106.276 36.4422C106.211 40.8962 109.528 44.7636 113.813 44.8269L128.686 45.0468ZM126.472 40.5975L123.924 35.481C122.889 33.4019 120.711 32.7734 119.303 33.4742L110.829 37.6922C111.253 39.345 112.591 40.3923 113.878 40.4112L126.472 40.5975ZM110.693 36.4774L118.791 32.4463C120.863 31.4147 123.685 32.4239 124.953 34.9692L130.323 45.7576C131.508 48.1374 130.355 51.0605 128.325 52.1713L33.1475 99.5484C31.6439 100.297 30.4225 100.199 29.2651 99.6556C28.1076 99.1127 27.0725 98.0011 26.4158 96.6818C25.7591 95.3626 25.4961 93.8664 25.7607 92.6158C26.0253 91.3649 26.6833 90.3312 28.1868 89.5827L96.8497 55.4039C97.0449 55.3102 97.2196 55.1786 97.3634 55.0167C97.5074 54.855 97.6176 54.6661 97.688 54.4613C97.7583 54.2564 97.7871 54.0397 97.773 53.8236C97.7587 53.6075 97.7017 53.3964 97.6052 53.2025C97.5087 53.0087 97.3746 52.836 97.2108 52.6943C97.0469 52.5527 96.8566 52.4451 96.6509 52.3777C96.445 52.3103 96.2279 52.2845 96.012 52.3018C95.7961 52.319 95.5858 52.379 95.3934 52.4782L26.7305 86.657C24.4068 87.8137 23.0351 89.8551 22.5875 91.9705C22.14 94.0862 22.5446 96.239 23.49 98.1381C24.4353 100.037 25.9318 101.704 27.8896 102.622C29.8472 103.54 32.2802 103.631 34.6039 102.474L129.872 55.0517C129.912 55.0157 129.95 54.9779 129.987 54.9381C129.994 54.9341 130.002 54.9303 130.009 54.927C130.017 54.9233 130.026 54.9195 130.033 54.9154C133.549 52.8914 135.216 48.2537 133.249 44.3019L127.878 33.5133C125.893 29.5255 121.171 27.6115 117.335 29.5211L110.747 32.8002L110.693 36.4774ZM105.453 39.0855C105.228 38.2313 105.114 37.3366 105.128 36.4252L105.14 35.591L5.19753 85.3397C1.36156 87.2492 0.0874987 92.1483 2.0725 96.136L12.176 116.433C14.161 120.421 18.8378 122.358 22.6738 120.448L107.977 77.9865C108.172 77.8928 108.346 77.7612 108.49 77.5993C108.634 77.4376 108.745 77.2487 108.815 77.0439C108.885 76.839 108.914 76.6224 108.9 76.4062C108.886 76.1901 108.829 75.979 108.732 75.7852C108.636 75.5913 108.502 75.4185 108.338 75.2769C108.174 75.1353 107.984 75.0277 107.778 74.9604C107.572 74.8929 107.355 74.8671 107.139 74.8844C106.923 74.9016 106.713 74.9616 106.52 75.0608L21.2175 117.523C19.1451 118.554 16.3688 117.522 15.1017 114.977L4.99822 94.6797C3.73121 92.1344 4.5816 89.297 6.65389 88.2655L105.453 39.0855Z" fill="url(#paint0_linear_1468_28526)"/>
<path d="M310.716 12.4276C308.652 9.87386 305.658 8.24473 302.392 7.89864L228.517 0.0689996C225.252 -0.277092 221.982 0.688198 219.429 2.75252C216.875 4.81684 215.246 7.81109 214.9 11.0766L214.23 17.3933L220.785 16.8213C223.74 16.8649 226.186 18.2337 227.712 20.2185C229.219 22.1781 229.837 24.6133 229.802 26.9381C229.768 29.2689 229.076 31.6317 227.515 33.542C225.941 35.4673 223.462 36.8278 220.49 36.7839L212.212 36.439L209.68 60.3266C209.334 63.5921 210.299 66.8613 212.363 69.415C214.428 71.9688 217.422 73.5979 220.687 73.944L279.701 80.1986C281.334 80.372 282.831 81.1868 283.863 82.4637L299.565 101.889C299.949 102.366 300.467 102.718 301.051 102.901C301.636 103.083 302.261 103.088 302.849 102.915C303.436 102.742 303.959 102.399 304.352 101.929C304.744 101.458 304.988 100.882 305.053 100.273L313.4 21.5161C313.746 18.2506 312.78 14.9814 310.716 12.4276Z" fill="url(#paint1_linear_1468_28526)"/>
<path d="M212.748 31.3826L220.572 31.2199C221.885 31.2391 222.616 30.7911 223.214 30.0594C223.823 29.3139 224.218 28.1333 224.237 26.8559C224.257 25.5782 223.895 24.3865 223.308 23.6231C222.733 22.8741 222.014 22.4049 220.703 22.3854L213.726 22.1486L212.748 31.3826Z" fill="url(#paint2_linear_1468_28526)"/>
<path d="M244.382 21.6439C250.392 17.8192 258.652 19.6142 263.122 25.5679C268.994 20.9919 277.437 21.4123 282.236 26.6864C288.479 33.5425 286.165 43.056 280.471 47.5035L261.843 62.0293C260.781 62.8585 259.457 63.2246 258.129 63.0478C256.792 62.8696 255.618 62.1803 254.81 61.1019L240.634 42.2062C236.312 36.4246 236.55 26.6346 244.382 21.6439ZM244.253 39.4715L258.429 58.3672C258.624 58.6215 258.811 58.6464 259.065 58.4519L277.693 43.9261C281.57 40.9021 283.139 34.4109 278.888 29.7428C275.657 26.2003 269.986 25.9111 265.992 29.0243L262.275 31.9267L259.447 28.1523C256.391 24.0812 250.839 22.8943 246.814 25.4607C241.499 28.8546 241.327 35.57 244.253 39.4715Z" fill="#121212"/>
<path d="M223.623 23.5408C223.048 22.7919 222.329 22.3227 221.018 22.3032L210.326 22.2254L210.558 21.1316L221.035 21.1549C222.714 21.1796 223.754 21.8274 224.533 22.841C225.313 23.8543 225.723 25.3169 225.701 26.7904C225.679 28.2642 225.226 29.7141 224.417 30.704C223.608 31.694 222.55 32.3106 220.87 32.2858L202.058 32.1318L202.289 31.038L220.887 31.1377C222.2 31.1569 222.931 30.7088 223.529 29.9772C224.138 29.2317 224.533 28.0511 224.552 26.7737C224.572 25.496 224.21 24.3043 223.623 23.5408Z" fill="url(#paint3_linear_1468_28526)"/>
<path d="M227.83 33.4598C226.256 35.3851 223.777 36.7455 220.805 36.7017L201.132 36.5069L201.363 35.4131L220.822 35.5535C223.418 35.5918 225.573 34.4073 226.941 32.7329C228.309 31.0587 228.937 28.96 228.969 26.8389C229 24.7175 228.435 22.5504 227.116 20.8364C225.798 19.1223 223.678 17.9256 221.083 17.8873L211.252 17.8502L209.423 16.7772L221.099 16.739C224.055 16.7827 226.501 18.1515 228.027 20.1363C229.534 22.0959 230.152 24.5311 230.117 26.8559C230.083 29.1867 229.391 31.5495 227.83 33.4598Z" fill="url(#paint4_linear_1468_28526)"/>
<path fill-rule="evenodd" clip-rule="evenodd" d="M236.119 200.483C231.839 200.243 228.307 203.869 228.057 208.316L226.786 230.953C226.536 235.401 229.64 239.399 233.918 239.639L329.056 244.983C329.272 244.998 329.489 244.97 329.694 244.901C329.899 244.832 330.088 244.722 330.25 244.579C330.413 244.436 330.546 244.262 330.641 244.067C330.735 243.872 330.79 243.661 330.802 243.445C330.814 243.228 330.783 243.012 330.711 242.808C330.639 242.603 330.526 242.416 330.381 242.255C330.235 242.095 330.06 241.965 329.864 241.873C329.668 241.781 329.456 241.729 329.239 241.72L234.102 236.376C231.791 236.247 229.89 233.975 230.049 231.137L231.321 208.499C231.48 205.661 233.623 203.617 235.935 203.746L341.58 209.68L340.694 207.699C340.491 207.247 340.33 206.79 340.206 206.33L236.119 200.483ZM339.973 205.167L236.183 199.337C231.165 199.055 227.19 203.282 226.911 208.252L225.64 230.889C225.361 235.858 228.837 240.504 233.854 240.786L328.984 246.129C329.349 246.154 329.715 246.106 330.061 245.989C330.41 245.871 330.733 245.684 331.01 245.441C331.286 245.197 331.512 244.901 331.673 244.569C331.834 244.237 331.928 243.877 331.948 243.509C331.969 243.141 331.917 242.772 331.793 242.425C331.67 242.077 331.48 241.757 331.232 241.484C330.984 241.211 330.685 240.989 330.351 240.833C330.02 240.678 329.661 240.59 329.296 240.573L234.167 235.23C232.612 235.143 231.065 233.538 231.195 231.201L232.467 208.564C232.598 206.227 234.316 204.806 235.87 204.893L342.107 210.86L345.614 218.7C347.65 223.253 352.922 225.752 357.5 223.704L363.676 220.942L363.281 227.982C363.17 229.967 361.294 231.499 359.556 231.481L253.431 225.52C252.121 225.447 251.423 224.948 250.879 224.176C250.324 223.389 250.012 222.183 250.084 220.907C250.156 219.632 250.6 218.469 251.24 217.749C251.867 217.043 252.616 216.625 253.927 216.699L330.498 221C330.863 221.024 331.229 220.976 331.575 220.859C331.924 220.741 332.247 220.555 332.523 220.311C332.801 220.067 333.026 219.771 333.187 219.439C333.348 219.108 333.441 218.748 333.462 218.379C333.483 218.011 333.431 217.643 333.308 217.295C333.184 216.947 332.994 216.628 332.746 216.355C332.498 216.081 332.198 215.86 331.865 215.704C331.534 215.548 331.175 215.46 330.81 215.444L254.238 211.143C251.271 210.976 248.737 212.233 247.086 214.092C245.447 215.936 244.658 218.268 244.528 220.595C244.397 222.917 244.914 225.376 246.338 227.396C247.781 229.442 250.168 230.911 253.119 231.076L359.526 237.053L359.679 237.02C359.699 237.016 359.719 237.011 359.739 237.006C364.332 236.939 368.556 233.309 368.837 228.294L369.393 218.385L471.848 172.566C476.435 170.515 478.028 164.935 475.996 160.391L466.74 139.694C464.708 135.15 459.487 132.618 454.9 134.669L367.922 173.567C367.586 173.713 367.283 173.923 367.029 174.186C366.773 174.451 366.572 174.765 366.438 175.108C366.304 175.452 366.239 175.818 366.248 176.187C366.257 176.556 366.339 176.919 366.49 177.255C366.64 177.592 366.856 177.895 367.125 178.148C367.394 178.4 367.71 178.597 368.056 178.726C368.401 178.855 368.769 178.914 369.137 178.9C369.502 178.886 369.861 178.8 370.194 178.647L457.171 139.749C458.593 139.113 460.704 139.829 461.66 141.966L470.916 162.663C471.871 164.8 470.997 166.851 469.576 167.486L368.983 212.473C367.829 209.142 364.936 206.569 361.247 206.362L345.838 205.573L345.774 205.427C344.962 203.612 345.926 201.39 347.478 200.609L444.509 157.215C445.707 156.679 446.555 156.802 447.393 157.239C448.248 157.683 449.078 158.611 449.599 159.778C450.121 160.944 450.259 162.182 450.021 163.115C449.788 164.03 449.314 164.745 448.116 165.28L378.106 196.59C377.771 196.736 377.467 196.946 377.213 197.209C376.957 197.474 376.756 197.788 376.622 198.131C376.488 198.475 376.424 198.841 376.433 199.21C376.442 199.579 376.524 199.942 376.674 200.278C376.825 200.615 377.041 200.918 377.31 201.171C377.578 201.423 377.895 201.62 378.24 201.749C378.585 201.878 378.953 201.937 379.321 201.923C379.687 201.909 380.046 201.823 380.378 201.67L450.388 170.36C453.101 169.147 454.776 166.867 455.391 164.458C456 162.068 455.631 159.634 454.679 157.506C453.73 155.384 452.144 153.436 449.951 152.294C447.73 151.138 444.935 150.928 442.237 152.135L344.948 195.644L344.827 195.744C344.812 195.757 344.797 195.77 344.78 195.784C341.465 197.558 339.466 201.339 339.973 205.167ZM346.331 206.674L347.833 210.031L360.999 210.771C363.31 210.901 365.263 213.175 365.103 216.014L364.428 228.046C364.279 230.7 361.829 232.669 359.516 232.629L253.367 226.667C251.689 226.573 250.677 225.883 249.941 224.838C249.204 223.793 248.854 222.315 248.937 220.843C249.02 219.372 249.533 217.942 250.382 216.986C251.231 216.03 252.314 215.458 253.991 215.552L330.57 219.854C330.785 219.869 331.003 219.841 331.208 219.771C331.413 219.702 331.602 219.593 331.764 219.45C331.927 219.306 332.06 219.132 332.154 218.938C332.249 218.743 332.304 218.531 332.316 218.315C332.328 218.099 332.297 217.882 332.225 217.678C332.153 217.474 332.04 217.286 331.895 217.126C331.749 216.965 331.574 216.835 331.378 216.743C331.182 216.651 330.969 216.6 330.752 216.591L254.174 212.289C251.582 212.144 249.38 213.238 247.943 214.855C246.508 216.471 245.793 218.542 245.674 220.66C245.555 222.778 246.03 224.967 247.277 226.734C248.523 228.501 250.592 229.784 253.184 229.93L359.434 235.898C359.488 235.886 359.539 235.872 359.591 235.856C359.599 235.856 359.607 235.857 359.616 235.857L359.628 235.858L359.634 235.858L359.642 235.859C363.699 235.841 367.443 232.637 367.691 228.23L368.367 216.197C368.616 211.75 365.461 207.749 361.183 207.508L346.331 206.674ZM348.36 211.211L350.694 216.429C351.642 218.549 353.793 219.267 355.229 218.625L363.869 214.76C363.513 213.091 362.22 211.99 360.935 211.918L348.36 211.211ZM363.955 215.98L355.698 219.673C353.584 220.618 350.806 219.493 349.645 216.897L344.725 205.896C343.64 203.47 344.913 200.597 346.987 199.571L444.04 156.167C445.573 155.481 446.79 155.63 447.924 156.22C449.058 156.81 450.046 157.964 450.648 159.309C451.249 160.654 451.45 162.16 451.134 163.399C450.818 164.637 450.118 165.643 448.585 166.329L378.568 197.641C378.37 197.727 378.189 197.851 378.039 198.007C377.889 198.163 377.771 198.347 377.692 198.548C377.613 198.75 377.575 198.966 377.581 199.182C377.586 199.399 377.634 199.612 377.723 199.81C377.811 200.007 377.938 200.185 378.096 200.334C378.254 200.482 378.439 200.597 378.642 200.673C378.845 200.749 379.061 200.784 379.277 200.775C379.494 200.767 379.706 200.716 379.903 200.625L449.919 169.312C452.289 168.252 453.743 166.269 454.278 164.174C454.812 162.079 454.497 159.911 453.631 157.975C452.765 156.038 451.339 154.311 449.421 153.313C447.503 152.315 445.075 152.124 442.706 153.183L345.56 196.629C345.518 196.663 345.478 196.699 345.44 196.738C345.433 196.741 345.425 196.745 345.417 196.748C345.409 196.751 345.401 196.755 345.394 196.758C341.796 198.635 339.94 203.2 341.741 207.23L346.662 218.231C348.48 222.298 353.12 224.405 357.032 222.656L363.749 219.652L363.955 215.98ZM369.298 213.59C369.487 214.453 369.564 215.352 369.513 216.262L369.466 217.095L471.379 171.518C475.291 169.769 476.766 164.926 474.948 160.86L465.691 140.163C463.873 136.096 459.28 133.968 455.368 135.717L368.384 174.618C368.185 174.704 368.005 174.828 367.855 174.984C367.704 175.14 367.586 175.324 367.508 175.525C367.429 175.727 367.391 175.943 367.396 176.159C367.401 176.376 367.45 176.589 367.538 176.787C367.627 176.984 367.754 177.162 367.911 177.311C368.069 177.459 368.255 177.574 368.458 177.65C368.661 177.726 368.877 177.761 369.093 177.752C369.309 177.744 369.522 177.693 369.718 177.602L456.703 138.701C458.816 137.756 461.547 138.901 462.708 141.497L471.964 162.194C473.125 164.79 472.158 167.589 470.045 168.535L369.298 213.59Z" fill="url(#paint5_linear_1468_28526)"/>
<path d="M266.684 201.001C271.459 202.259 273.333 208.036 270.203 211.856L269.739 212.424L254.264 211.137C251.297 210.97 248.763 212.227 247.112 214.086C245.473 215.93 244.684 218.262 244.554 220.59C244.423 222.911 244.939 225.37 246.364 227.39C247.807 229.436 250.194 230.905 253.145 231.07L254.516 231.008L250.783 235.565C249.706 236.88 249.162 238.55 249.258 240.247L250.997 270.845C251.277 275.776 246.362 279.342 241.761 277.547L213.212 266.403C211.629 265.785 209.871 265.784 208.288 266.4L179.725 277.509C175.122 279.299 170.211 275.726 170.497 270.796L172.273 240.2C172.371 238.504 171.829 236.832 170.754 235.516L151.362 211.784C148.237 207.96 150.118 202.185 154.895 200.934L184.542 193.168C186.186 192.737 187.608 191.705 188.527 190.276L205.106 164.5C207.777 160.346 213.851 160.35 216.517 164.507L233.064 190.303C233.982 191.734 235.403 192.767 237.046 193.2L266.684 201.001Z" fill="url(#paint6_linear_1468_28526)"/>
<path d="M258.692 225.909L266.038 216.941L253.953 216.693C252.642 216.619 251.893 217.037 251.265 217.743C250.626 218.463 250.182 219.626 250.11 220.902C250.038 222.177 250.35 223.383 250.905 224.17C251.449 224.942 252.147 225.441 253.457 225.514L258.692 225.909Z" fill="url(#paint7_linear_1468_28526)"/>
<path d="M194.092 225.861C191.847 225.707 189.856 227.418 190.174 229.647C190.34 230.806 190.611 231.95 190.985 233.065C191.793 235.472 193.067 237.697 194.735 239.612C196.403 241.527 198.432 243.095 200.705 244.226C202.979 245.357 205.453 246.029 207.987 246.204C210.52 246.379 213.063 246.053 215.471 245.245C217.878 244.437 220.103 243.162 222.018 241.495C223.933 239.827 225.501 237.798 226.632 235.525C227.155 234.471 227.581 233.375 227.904 232.25C228.525 230.086 226.789 228.118 224.543 227.963C222.297 227.808 220.415 229.565 219.469 231.609C219.425 231.704 219.38 231.799 219.333 231.894C218.678 233.209 217.771 234.382 216.664 235.347C215.556 236.312 214.269 237.049 212.877 237.516C211.484 237.984 210.013 238.172 208.548 238.071C207.082 237.97 205.651 237.581 204.336 236.927C203.021 236.273 201.847 235.366 200.883 234.258C199.918 233.15 199.181 231.864 198.714 230.471C198.68 230.371 198.648 230.271 198.617 230.17C197.962 228.016 196.338 226.016 194.092 225.861Z" fill="#121212"/>
<path d="M250.586 224.239C251.131 225.011 251.829 225.51 253.139 225.583L263.818 226.103L263.541 227.186L253.074 226.73C251.397 226.636 250.385 225.946 249.649 224.901C248.911 223.856 248.562 222.378 248.644 220.906C248.728 219.435 249.24 218.005 250.089 217.049C250.938 216.094 252.022 215.521 253.699 215.615L272.488 216.547L272.212 217.63L253.635 216.762C252.324 216.688 251.575 217.106 250.947 217.812C250.308 218.532 249.864 219.695 249.792 220.971C249.719 222.246 250.032 223.452 250.586 224.239Z" fill="url(#paint8_linear_1468_28526)"/>
<path d="M246.793 214.155C248.445 212.296 250.979 211.039 253.946 211.206L273.595 212.213L273.318 213.297L253.882 212.352C251.29 212.207 249.088 213.301 247.651 214.918C246.216 216.534 245.501 218.605 245.382 220.723C245.263 222.841 245.738 225.03 246.985 226.797C248.231 228.564 250.3 229.847 252.892 229.993L262.712 230.436L264.496 231.584L252.827 231.139C249.876 230.974 247.488 229.505 246.046 227.459C244.621 225.439 244.105 222.98 244.235 220.659C244.366 218.331 245.154 215.999 246.793 214.155Z" fill="url(#paint9_linear_1468_28526)"/>
<defs>
<linearGradient id="paint0_linear_1468_28526" x1="189.063" y1="-25.9049" x2="191.538" y2="383.496" gradientUnits="userSpaceOnUse">
<stop stop-color="#FFA7F6"/>
<stop offset="1" stop-color="#4E4AFE"/>
</linearGradient>
<linearGradient id="paint1_linear_1468_28526" x1="130.384" y1="27.6106" x2="227.911" y2="274.7" gradientUnits="userSpaceOnUse">
<stop stop-color="#FFA7F6"/>
<stop offset="1" stop-color="#4E4AFE"/>
</linearGradient>
<linearGradient id="paint2_linear_1468_28526" x1="130.384" y1="27.6106" x2="227.911" y2="274.7" gradientUnits="userSpaceOnUse">
<stop stop-color="#FFA7F6"/>
<stop offset="1" stop-color="#4E4AFE"/>
</linearGradient>
<linearGradient id="paint3_linear_1468_28526" x1="130.384" y1="27.6106" x2="227.911" y2="274.7" gradientUnits="userSpaceOnUse">
<stop stop-color="#FFA7F6"/>
<stop offset="1" stop-color="#4E4AFE"/>
</linearGradient>
<linearGradient id="paint4_linear_1468_28526" x1="130.384" y1="27.6106" x2="227.911" y2="274.7" gradientUnits="userSpaceOnUse">
<stop stop-color="#FFA7F6"/>
<stop offset="1" stop-color="#4E4AFE"/>
</linearGradient>
<linearGradient id="paint5_linear_1468_28526" x1="189.063" y1="-25.9049" x2="191.538" y2="383.496" gradientUnits="userSpaceOnUse">
<stop stop-color="#FFA7F6"/>
<stop offset="1" stop-color="#4E4AFE"/>
</linearGradient>
<linearGradient id="paint6_linear_1468_28526" x1="387.913" y1="241.319" x2="361.754" y2="122.667" gradientUnits="userSpaceOnUse">
<stop stop-color="#4E4AFE"/>
<stop offset="1" stop-color="#FFA7F6"/>
</linearGradient>
<linearGradient id="paint7_linear_1468_28526" x1="387.913" y1="241.319" x2="361.754" y2="122.667" gradientUnits="userSpaceOnUse">
<stop stop-color="#4E4AFE"/>
<stop offset="1" stop-color="#FFA7F6"/>
</linearGradient>
<linearGradient id="paint8_linear_1468_28526" x1="387.913" y1="241.319" x2="361.754" y2="122.667" gradientUnits="userSpaceOnUse">
<stop stop-color="#4E4AFE"/>
<stop offset="1" stop-color="#FFA7F6"/>
</linearGradient>
<linearGradient id="paint9_linear_1468_28526" x1="387.913" y1="241.319" x2="361.754" y2="122.667" gradientUnits="userSpaceOnUse">
<stop stop-color="#4E4AFE"/>
<stop offset="1" stop-color="#FFA7F6"/>
</linearGradient>
</defs>
</svg>
