<svg width="68" height="90" viewBox="0 0 68 90" fill="none" xmlns="http://www.w3.org/2000/svg">
<path d="M28.4023 73.2771L28.125 73.0922L27.8477 73.2771L4.09363 89.1113C3.74539 89.343 3.34082 89.4759 2.923 89.4959C2.50518 89.5159 2.08977 89.4222 1.721 89.2247C1.35223 89.0273 1.04392 88.7336 0.828902 88.3747C0.613931 88.016 0.500263 87.6057 0.5 87.1875C0.5 87.1874 0.5 87.1873 0.5 87.1872L0.5 22.5C0.5 19.6489 1.63259 16.9146 3.6486 14.8986C5.66462 12.8826 8.39892 11.75 11.25 11.75H45C47.8511 11.75 50.5854 12.8826 52.6014 14.8986C54.6174 16.9146 55.75 19.6489 55.75 22.5V87.1872C55.7498 87.6055 55.6361 88.016 55.4211 88.3748C55.2061 88.7335 54.8978 89.0273 54.529 89.2247C54.1602 89.4222 53.7448 89.5159 53.327 89.4959C52.9092 89.4759 52.5046 89.343 52.1564 89.1113L28.4023 73.2771ZM5.125 81.9338V82.868L5.90235 82.3498L26.8439 68.3888C27.2234 68.1362 27.6691 68.0015 28.125 68.0015C28.5809 68.0015 29.0266 68.1362 29.4061 68.3888L50.3476 82.3498L51.125 82.868V81.9338V22.5C51.125 20.8755 50.4797 19.3176 49.331 18.169C48.1824 17.0203 46.6245 16.375 45 16.375H11.25C9.62555 16.375 8.06763 17.0203 6.91897 18.169C5.77031 19.3176 5.125 20.8755 5.125 22.5V81.9338ZM63.4077 77.8613L63.4072 77.8609L62.3763 77.1768V11.25C62.3763 9.62555 61.731 8.06763 60.5823 6.91897C59.4337 5.77031 57.8757 5.125 56.2513 5.125H13.6672C14.569 3.82418 15.7493 2.7354 17.1265 1.9403C18.7606 0.996788 20.6143 0.500048 22.5013 0.5H56.2513C59.1024 0.5 61.8367 1.63259 63.8527 3.6486C65.8687 5.66462 67.0013 8.39892 67.0013 11.25V75.9373C67.0011 76.3555 66.8874 76.766 66.6724 77.1248C66.4574 77.4835 66.1491 77.7773 65.7803 77.9747C65.4115 78.1722 64.9961 78.2659 64.5783 78.2459C64.1605 78.2259 63.7559 78.093 63.4077 77.8613Z" stroke="url(#paint0_linear_1425_68445)"/>
<defs>
<linearGradient id="paint0_linear_1425_68445" x1="26.7623" y1="-8.3858" x2="28.594" y2="124.123" gradientUnits="userSpaceOnUse">
<stop stop-color="#FFA7F6"/>
<stop offset="1" stop-color="#4E4AFE"/>
</linearGradient>
</defs>
</svg>
