<svg width="235" height="75" viewBox="0 0 235 75" fill="none" xmlns="http://www.w3.org/2000/svg">
<path fill-rule="evenodd" clip-rule="evenodd" d="M219.244 58.082C222.969 59.1119 226.775 56.5925 227.846 52.7211L233.295 33.0159C234.366 29.1443 232.395 25.0273 228.671 23.9974L145.856 1.0945C145.668 1.03979 145.472 1.02289 145.278 1.04477C145.084 1.06665 144.896 1.12688 144.726 1.22195C144.555 1.31703 144.405 1.44506 144.284 1.5986C144.164 1.75213 144.075 1.92812 144.023 2.11633C143.971 2.30454 143.957 2.50123 143.981 2.69494C144.006 2.88866 144.069 3.07555 144.166 3.24476C144.264 3.41396 144.394 3.56211 144.549 3.68058C144.704 3.79906 144.881 3.8855 145.07 3.93488L227.885 26.8378C229.897 27.3942 231.138 29.7591 230.455 32.2304L225.005 51.9355C224.322 54.4067 222.042 55.798 220.03 55.2416L128.068 29.809L128.47 31.7246C128.562 32.1613 128.617 32.5953 128.638 33.0239L219.244 58.082ZM128.621 34.0935L218.968 59.08C223.336 60.2878 227.647 57.3228 228.844 52.9971L234.293 33.2919C235.489 28.9661 233.314 24.2072 228.947 22.9994L146.138 0.0981947C145.821 0.00686295 145.49 -0.0211505 145.162 0.0158019C144.832 0.0530551 144.512 0.155609 144.221 0.317489C143.931 0.479371 143.676 0.697355 143.47 0.958788C143.265 1.22021 143.113 1.51986 143.025 1.84033C142.936 2.16079 142.912 2.49567 142.954 2.8255C142.996 3.15534 143.103 3.47355 143.269 3.76165C143.435 4.04975 143.656 4.30199 143.921 4.50372C144.183 4.70378 144.482 4.85019 144.801 4.93462L227.609 27.8358C228.962 28.21 230.019 29.9201 229.457 31.9544L224.007 51.6595C223.445 53.6937 221.659 54.6177 220.306 54.2436L127.829 28.6685L126.238 21.0892C125.315 16.6873 121.147 13.4774 116.721 14.4063L110.75 15.6592L112.444 9.53118C112.922 7.80287 114.868 6.81183 116.396 7.15973L208.776 32.708C209.916 33.0234 210.436 33.5962 210.768 34.3807C211.106 35.1803 211.151 36.3025 210.843 37.4129C210.536 38.5232 209.922 39.4633 209.221 39.9753C208.533 40.4777 207.793 40.7023 206.652 40.3869L139.998 21.9533C139.681 21.862 139.35 21.834 139.022 21.8709C138.692 21.9082 138.372 22.0108 138.082 22.1726C137.791 22.3345 137.536 22.5525 137.33 22.8139C137.125 23.0754 136.974 23.375 136.885 23.6955C136.796 24.0159 136.772 24.3508 136.814 24.6806C136.856 25.0105 136.963 25.3287 137.129 25.6168C137.295 25.9049 137.517 26.1571 137.781 26.3589C138.043 26.5589 138.342 26.7053 138.661 26.7897L205.315 45.2233C207.898 45.9376 210.371 45.3146 212.182 43.9926C213.979 42.6809 215.12 40.7765 215.68 38.7505C216.239 36.7298 216.254 34.4644 215.385 32.4118C214.505 30.3328 212.682 28.5819 210.113 27.8715L117.488 2.25542L117.347 2.25547C117.329 2.25547 117.31 2.25568 117.292 2.25609C113.231 1.43716 108.815 3.82823 107.608 8.19323L105.223 16.8189L6.17517 37.6021C1.74035 38.5327 -0.730117 43.1453 0.191567 47.5378L4.39016 67.5468C5.31188 71.9394 9.4281 75.1697 13.8629 74.2392L97.9487 56.595C98.2721 56.5308 98.5797 56.4035 98.8539 56.2204C99.1303 56.0357 99.3674 55.7979 99.5511 55.5208C99.7349 55.2437 99.8618 54.9329 99.9244 54.6063C99.987 54.2798 99.984 53.9441 99.9158 53.6187C99.8475 53.2932 99.7152 52.9847 99.5266 52.7108C99.338 52.437 99.0969 52.2034 98.8173 52.0235C98.5376 51.8437 98.225 51.7212 97.8976 51.6632C97.5729 51.6057 97.2401 51.6128 96.9182 51.684L12.8324 69.3282C11.4585 69.6164 9.73464 68.582 9.30119 66.5163L5.1026 46.5073C4.66917 44.4417 5.83183 42.8014 7.20567 42.5131L104.454 22.1071C104.834 25.2638 106.891 28.0837 110.102 28.9719L123.53 32.6142L123.559 32.7547C123.927 34.5096 122.653 36.2831 121.136 36.6748L27.3311 56.3583C26.173 56.6014 25.4488 56.3306 24.7937 55.7859C24.1261 55.2308 23.572 54.254 23.3354 53.1264C23.0988 51.999 23.2135 50.8817 23.6017 50.1051C23.9825 49.343 24.5368 48.804 25.695 48.561L93.377 34.3589C93.7004 34.2947 94.0079 34.1674 94.2821 33.9843C94.5586 33.7996 94.7956 33.5618 94.9794 33.2847C95.1632 33.0076 95.29 32.6968 95.3526 32.3702C95.4152 32.0437 95.4123 31.708 95.344 31.3826C95.2757 31.0572 95.1435 30.7486 94.9549 30.4747C94.7663 30.2009 94.5252 29.9673 94.2455 29.7874C93.9659 29.6076 93.6533 29.4851 93.3259 29.4271C93.0012 29.3697 92.6684 29.3767 92.3465 29.4479L24.6645 43.65C22.0417 44.2003 20.1296 45.8889 19.1271 47.8944C18.1327 49.884 17.9927 52.0996 18.4244 54.1569C18.8549 56.2087 19.8806 58.2286 21.5946 59.6538C23.3307 61.0971 25.7535 61.8166 28.3616 61.2694L122.416 41.5335L122.541 41.4689C122.557 41.4605 122.573 41.4518 122.59 41.4429C125.851 40.5134 128.336 37.564 128.621 34.0935ZM123.306 31.5493L122.625 28.3037L111.164 25.134C109.152 24.5776 107.866 22.2002 108.55 19.7291L111.446 9.25517C112.085 6.94495 114.62 5.6782 116.651 6.1559L209.052 31.7099C210.512 32.1136 211.272 32.9154 211.721 33.977C212.171 35.0386 212.196 36.4081 211.842 37.6889C211.487 38.9697 210.762 40.1318 209.831 40.8116C208.9 41.4914 207.836 41.7886 206.376 41.3849L139.716 22.9496C139.529 22.8949 139.332 22.878 139.138 22.8999C138.944 22.9218 138.756 22.982 138.586 23.0771C138.415 23.1722 138.265 23.3002 138.145 23.4537C138.024 23.6073 137.935 23.7833 137.883 23.9715C137.831 24.1597 137.817 24.3564 137.841 24.5501C137.866 24.7438 137.929 24.9307 138.026 25.0999C138.124 25.2691 138.254 25.4172 138.409 25.5357C138.564 25.6542 138.742 25.7406 138.931 25.79L205.591 44.2253C207.847 44.8492 209.997 44.3059 211.572 43.1562C213.146 42.0064 214.172 40.3181 214.682 38.4745C215.192 36.6306 215.192 34.6111 214.431 32.8155C213.671 31.02 212.093 29.4934 209.837 28.8696L117.348 3.29096C117.299 3.29097 117.251 3.2933 117.202 3.2981C117.195 3.29653 117.188 3.29428 117.18 3.29201V3.29199L117.17 3.28889L117.165 3.28758L117.158 3.28585C113.579 2.52534 109.667 4.63274 108.606 8.46924L105.709 18.9431C104.639 22.8147 106.654 26.944 110.378 27.9739L123.306 31.5493ZM122.386 27.1632L121.327 22.1192C120.897 20.0696 119.139 19.0256 117.751 19.3168L109.398 21.0697C109.392 22.6084 110.321 23.8265 111.44 24.1359L122.386 27.1632ZM109.555 19.9786L117.538 18.3034C119.581 17.8747 121.814 19.3973 122.341 21.9066L124.573 32.542C125.065 34.8879 123.394 37.1762 121.37 37.6837L27.5438 57.3718C26.0615 57.6828 25.0181 57.3192 24.1317 56.5821C23.2452 55.8451 22.5949 54.6397 22.322 53.3391C22.0491 52.0386 22.16 50.6733 22.6754 49.6422C23.1908 48.6109 24.0001 47.8586 25.4823 47.5476L93.1706 33.3442C93.3622 33.3068 93.5446 33.2317 93.7069 33.1232C93.8693 33.0148 94.0085 32.8751 94.1165 32.7124C94.2244 32.5496 94.2989 32.3671 94.3357 32.1753C94.3724 31.9835 94.3707 31.7863 94.3306 31.5952C94.2905 31.4041 94.2128 31.2229 94.1021 31.062C93.9913 30.9012 93.8497 30.764 93.6855 30.6584C93.5212 30.5527 93.3376 30.4808 93.1453 30.4468C92.953 30.4127 92.7559 30.4172 92.5654 30.46L24.8771 44.6634C22.5864 45.1441 20.9251 46.6133 20.0533 48.3573C19.1816 50.1016 19.0449 52.0721 19.4378 53.9443C19.8306 55.8165 20.7573 57.6109 22.2567 58.8576C23.756 60.1041 25.8583 60.7366 28.149 60.2559L122.065 40.549C122.108 40.5267 122.15 40.5024 122.191 40.476C122.198 40.4741 122.206 40.4727 122.213 40.4714V40.4713C122.221 40.47 122.229 40.4686 122.236 40.4666C125.765 39.5005 128.274 35.8329 127.457 31.9373L125.225 21.3018C124.4 17.3705 120.715 14.6262 116.933 15.4197L110.439 16.7824L109.555 19.9786ZM104.39 21.0625C104.388 20.2659 104.492 19.4593 104.711 18.6671L104.912 17.9421L6.38782 38.6155C2.60629 39.409 0.380096 43.394 1.20499 47.3251L5.40359 67.3342C6.22851 71.2654 9.86873 74.0193 13.6503 73.2258L97.7423 55.5803C97.934 55.5429 98.1163 55.4678 98.2787 55.3593C98.4411 55.2509 98.5802 55.1112 98.6882 54.9485C98.7961 54.7857 98.8706 54.6032 98.9074 54.4114C98.9442 54.2196 98.9424 54.0224 98.9023 53.8313C98.8622 53.6402 98.7845 53.4589 98.6738 53.2981C98.563 53.1373 98.4214 53.0001 98.2572 52.8945C98.0929 52.7888 97.9093 52.7169 97.7171 52.6829C97.5248 52.6488 97.3276 52.6533 97.1371 52.6961L13.0451 70.3416C11.0022 70.7702 8.81434 69.2383 8.28778 66.7289L4.08918 46.7199C3.56266 44.2107 4.95014 41.9284 6.99302 41.4997L104.39 21.0625Z" fill="url(#paint0_linear_1425_68365)"/>
<defs>
<linearGradient id="paint0_linear_1425_68365" x1="93.0193" y1="-6.93235" x2="93.3795" y2="102.629" gradientUnits="userSpaceOnUse">
<stop stop-color="#FFA7F6"/>
<stop offset="1" stop-color="#4E4AFE"/>
</linearGradient>
</defs>
</svg>
