<svg width="40" height="40" viewBox="0 0 40 40" fill="none" xmlns="http://www.w3.org/2000/svg">
<rect x="8" width="24" height="40" rx="12" fill="white"/>
<path d="M28.226 22.5424C28.131 22.4288 28.0007 22.3506 27.8561 22.3202C27.711 22.2897 27.5606 22.3093 27.4283 22.3757L19.8468 26.1658L12.2648 22.3757C12.1325 22.3093 11.982 22.2897 11.837 22.3202C11.6924 22.3501 11.5621 22.4283 11.4671 22.5419C11.3722 22.6555 11.3186 22.7977 11.3147 22.9452C11.3108 23.0932 11.357 23.2378 11.4455 23.3558L19.3211 33.8541C19.3289 33.8644 19.3422 33.8684 19.3511 33.8792C19.3948 33.9308 19.4465 33.9751 19.5045 34.0105C19.5252 34.0262 19.5473 34.041 19.5699 34.0538C19.6555 34.097 19.7499 34.1192 19.8458 34.1192C19.9417 34.1192 20.0361 34.0965 20.1212 34.0538C20.1443 34.041 20.166 34.0262 20.1866 34.0105C20.2447 33.9751 20.2963 33.9308 20.3401 33.8792C20.3494 33.8684 20.3622 33.8644 20.3701 33.8541L28.2456 23.3558C28.3341 23.2378 28.3804 23.0932 28.3764 22.9452C28.3745 22.7981 28.3209 22.656 28.226 22.5424ZM19.1902 27.3047V31.4921L14.1641 24.7996L19.1902 27.3047ZM20.5028 31.4926V27.3052L25.529 24.8001L20.5028 31.4926Z" fill="#151616"/>
<path d="M11.3331 20.4139C11.3326 20.4498 11.3351 20.4862 11.341 20.5216C11.3474 20.5427 11.3631 20.5585 11.371 20.5781C11.374 20.5963 11.3784 20.6145 11.3843 20.6317C11.3922 20.6489 11.4118 20.6553 11.4212 20.6711C11.4649 20.7439 11.523 20.8073 11.5918 20.8574C11.614 20.8732 11.6297 20.8914 11.6523 20.9047C11.6744 20.9179 11.6681 20.9204 11.6774 20.9243L19.553 24.8614H19.5712C19.6567 24.9037 19.7512 24.9259 19.8471 24.9259C19.943 24.9259 20.0369 24.9037 20.1225 24.8614H20.1407L28.0162 20.9243C28.0354 20.911 28.0541 20.8968 28.0713 20.8811C28.1121 20.8555 28.15 20.825 28.1844 20.7906C28.2134 20.7611 28.2395 20.7286 28.2616 20.6937C28.2783 20.674 28.2941 20.6534 28.3088 20.6322C28.3182 20.6125 28.3167 20.5929 28.3246 20.5747C28.3349 20.558 28.3438 20.5403 28.3521 20.5221C28.3541 20.4985 28.3541 20.4749 28.3521 20.4512C28.3615 20.406 28.3649 20.3598 28.3624 20.3136C28.361 20.2752 28.356 20.2368 28.3482 20.1995C28.3374 20.1542 28.3216 20.11 28.301 20.0682C28.2956 20.047 28.2882 20.0264 28.2798 20.0067L20.4047 6.88285C20.3954 6.86859 20.3787 6.86318 20.3693 6.8499C20.3118 6.76335 20.2336 6.69204 20.1421 6.64286C20.0507 6.59369 19.9484 6.56812 19.8441 6.56812C19.7403 6.56812 19.6375 6.59369 19.5461 6.64286C19.4546 6.69204 19.3764 6.76286 19.3189 6.8499C19.3095 6.86318 19.2928 6.86809 19.2835 6.88285L11.4079 20.0057C11.3553 20.0986 11.3267 20.2034 11.3238 20.3101C11.3238 20.3219 11.3145 20.3313 11.3145 20.3431C11.3194 20.3672 11.3258 20.3908 11.3331 20.4139ZM19.1905 23.213L13.4385 20.3376L19.1905 17.4623V23.213ZM20.5031 17.4623L26.2551 20.3376L20.5031 23.213V17.4623ZM20.5031 15.9953V9.58364L25.9989 18.7423L20.5031 15.9953ZM19.1905 15.9953L13.6933 18.7433L19.1905 9.58364V15.9953Z" fill="#151616"/>
<path d="M19.9997 40C16.717 40 13.6217 38.713 11.2847 36.3757C8.94718 34.0383 7.66016 30.9436 7.66016 27.661V12.339C7.66016 9.05642 8.94718 5.96122 11.2847 3.62434C13.6222 1.28696 16.717 0 19.9997 0C23.2824 0 26.3778 1.28696 28.7148 3.62434C31.0523 5.96172 32.3393 9.05642 32.3393 12.339V27.661C32.3393 30.9436 31.0523 34.0388 28.7148 36.3757C26.3778 38.713 23.2824 40 19.9997 40ZM19.9997 0.491769C13.4667 0.491769 8.15195 5.80632 8.15195 12.339V27.661C8.15195 34.1937 13.4667 39.5082 19.9997 39.5082C26.5327 39.5082 31.8475 34.1937 31.8475 27.661V12.339C31.8475 5.80632 26.5327 0.491769 19.9997 0.491769Z" fill="#151616"/>
<path d="M10.9203 17.5563H10.7266L9.91412 16.9475V17.5534H9.63281V16.502H9.82658L10.639 17.1108V16.5049H10.9208V17.5563H10.9203Z" fill="#151616"/>
<path d="M10.9203 16.1548H9.63281V15.8051H10.1531V15.7874L9.63281 15.3999V14.9927L10.2062 15.428L10.9203 14.9829V15.4004L10.4374 15.6896L10.5884 15.8051H10.9203V16.1548Z" fill="#151616"/>
<path d="M10.9203 14.7129H9.63281V14.1572C9.63281 14.0618 9.6515 13.9782 9.68937 13.9064C9.72724 13.8346 9.78035 13.779 9.84822 13.7392C9.91658 13.6994 9.99625 13.6797 10.0877 13.6797C10.1802 13.6797 10.2598 13.7003 10.3272 13.7412C10.3946 13.782 10.4467 13.839 10.4831 13.9128C10.5195 13.9866 10.5377 14.0721 10.5377 14.1705V14.5024H10.2662V14.2408C10.2662 14.2 10.2589 14.1646 10.2446 14.1356C10.2303 14.1065 10.2097 14.0839 10.1826 14.0682C10.1561 14.0524 10.1241 14.0446 10.0877 14.0446C10.0508 14.0446 10.0194 14.0524 9.9933 14.0682C9.96723 14.0839 9.94707 14.1065 9.93281 14.1356C9.91854 14.1646 9.91166 14.2 9.91166 14.2408V14.3642H10.9203V14.7129Z" fill="#151616"/>
<path d="M15.7207 6.75595L14.2891 3.4783L15.7039 2.86015C15.9474 2.75393 16.181 2.70918 16.4052 2.72541C16.6295 2.74163 16.8306 2.81491 17.0077 2.94424C17.1847 3.07358 17.3244 3.25504 17.4262 3.48765C17.5285 3.72222 17.5654 3.94844 17.5364 4.16531C17.5074 4.38267 17.4193 4.57839 17.2728 4.75297C17.1262 4.92755 16.928 5.06918 16.6782 5.17835L15.8333 5.54718L15.5313 4.85575L16.1972 4.56511C16.302 4.51938 16.3831 4.46184 16.4411 4.39299C16.4992 4.32415 16.5336 4.24645 16.5434 4.16039C16.5538 4.07482 16.5385 3.98532 16.4977 3.89237C16.4569 3.79845 16.4018 3.72714 16.3325 3.67796C16.2631 3.62879 16.1839 3.60272 16.0939 3.59928C16.0039 3.59584 15.9071 3.61698 15.8023 3.66272L15.4885 3.79992L16.6098 6.36696L15.7207 6.75595Z" fill="#151616"/>
<path d="M20.7662 3.10704C20.7608 2.99049 20.721 2.89803 20.6457 2.83017C20.5705 2.76231 20.4544 2.72542 20.2975 2.72001C20.1972 2.71657 20.1151 2.72542 20.0511 2.74706C19.9867 2.7687 19.939 2.79919 19.907 2.83902C19.8751 2.87885 19.8579 2.92459 19.8549 2.97721C19.851 3.01999 19.8574 3.05933 19.8746 3.09425C19.8913 3.12917 19.9193 3.16113 19.9577 3.18965C19.9961 3.21818 20.0462 3.24473 20.1067 3.26932C20.1672 3.29391 20.24 3.31604 20.3246 3.3362L20.6157 3.40947C20.8119 3.45816 20.9791 3.51963 21.1178 3.5929C21.256 3.66667 21.3686 3.75125 21.4547 3.84666C21.5408 3.94206 21.6032 4.04828 21.6421 4.16532C21.6804 4.28187 21.6981 4.40826 21.6942 4.54448C21.6849 4.77954 21.619 4.97625 21.497 5.13509C21.375 5.29393 21.2044 5.41196 20.9855 5.48917C20.7667 5.56637 20.506 5.59981 20.2036 5.58949C19.8928 5.57867 19.6238 5.5231 19.3961 5.42327C19.1684 5.32344 18.9943 5.17542 18.8733 4.97969C18.7528 4.78397 18.6967 4.53661 18.7061 4.23712L19.6277 4.26958C19.6297 4.37924 19.6538 4.47219 19.7 4.54841C19.7462 4.62464 19.8131 4.68365 19.9006 4.72496C19.9882 4.76626 20.0939 4.78938 20.2174 4.7938C20.3211 4.79725 20.4082 4.7879 20.479 4.7643C20.5498 4.74118 20.6039 4.70774 20.6418 4.66348C20.6796 4.61923 20.6998 4.56808 20.7032 4.51005C20.7037 4.45547 20.688 4.40678 20.6551 4.364C20.6221 4.32171 20.5675 4.28236 20.4903 4.24646C20.4136 4.21057 20.3093 4.17565 20.1775 4.14221L19.8244 4.05271C19.5102 3.97304 19.2652 3.84961 19.0887 3.68191C18.9121 3.51422 18.8295 3.29096 18.8403 3.01163C18.8472 2.78493 18.9146 2.58822 19.0434 2.422C19.1723 2.25578 19.3474 2.12891 19.5687 2.04088C19.79 1.95335 20.0423 1.914 20.3251 1.92384C20.6137 1.93417 20.8616 1.99121 21.0686 2.09498C21.2757 2.19874 21.4336 2.34037 21.5422 2.51937C21.6509 2.69838 21.7016 2.90492 21.6942 3.139L20.7662 3.10704Z" fill="#151616"/>
<path d="M22.0547 5.71933L23.5497 2.47021L25.8917 3.54768L25.5646 4.25829L24.105 3.58653L23.8483 4.14518L25.1874 4.76137L24.8604 5.47197L23.5212 4.85579L23.2645 5.41444L24.7177 6.08324L24.3907 6.79385L22.0547 5.71933Z" fill="#151616"/>
<path d="M29.2363 14.5288H30.5238V14.8785H29.5181V15.3992H29.2363V14.5288Z" fill="#151616"/>
<path d="M29.2354 15.7194H29.4867L29.884 16.1999C29.9106 16.2318 29.9352 16.2589 29.9583 16.282C29.9814 16.3046 30.0055 16.3223 30.0301 16.3346C30.0547 16.3469 30.0822 16.3533 30.1122 16.3533C30.1452 16.3533 30.1737 16.3464 30.1973 16.3322C30.2209 16.3179 30.2391 16.2987 30.2519 16.2741C30.2647 16.2495 30.2711 16.221 30.2711 16.1886C30.2711 16.1561 30.2647 16.1281 30.2514 16.1035C30.2386 16.0789 30.2194 16.0602 30.1944 16.0464C30.1693 16.0332 30.1388 16.0263 30.1024 16.0263V15.6943C30.1929 15.6943 30.2711 15.7145 30.3365 15.7553C30.4019 15.7961 30.4521 15.8532 30.4875 15.9274C30.5229 16.0017 30.5401 16.0887 30.5401 16.1886C30.5401 16.2918 30.5239 16.3808 30.4909 16.4566C30.458 16.5323 30.4117 16.5908 30.3522 16.6321C30.2927 16.6734 30.2229 16.6941 30.1427 16.6941C30.093 16.6941 30.0444 16.6838 29.9952 16.6631C29.9465 16.6425 29.8924 16.6056 29.8334 16.5525C29.7744 16.4994 29.704 16.4236 29.6219 16.3253L29.5211 16.2048H29.5137V16.7079H29.2344V15.7194H29.2354Z" fill="#151616"/>
<path d="M9.96289 29.7823L11.2666 29.1936L11.4747 29.6539C11.5199 29.7542 11.5391 29.8462 11.5322 29.9288C11.5248 30.0114 11.4968 30.0837 11.4481 30.1452C11.3989 30.2066 11.3345 30.2558 11.2548 30.2917C11.1747 30.3281 11.095 30.3438 11.0163 30.3399C10.9376 30.336 10.8648 30.3089 10.7975 30.2593C10.7301 30.2096 10.6745 30.1349 10.6293 30.035L10.4862 29.7183L10.6529 29.6431L10.7876 29.9421C10.8162 30.0055 10.8506 30.0522 10.8909 30.0817C10.9312 30.1112 10.9745 30.1265 11.0217 30.1275C11.0689 30.1285 11.1166 30.1181 11.1658 30.0955C11.215 30.0734 11.2548 30.0444 11.2843 30.0085C11.3143 29.9726 11.3311 29.9303 11.3345 29.8806C11.3384 29.8309 11.3256 29.7739 11.2961 29.709L11.1855 29.4641L10.0504 29.9765L9.96289 29.7823Z" fill="#151616"/>
<path d="M10.498 30.9351L11.4541 30.4478L11.5451 30.6258L11.3931 30.703L11.398 30.7128C11.458 30.704 11.5146 30.7138 11.5662 30.7423C11.6179 30.7708 11.6582 30.8131 11.6867 30.8687C11.6926 30.88 11.699 30.8943 11.7064 30.9105C11.7138 30.9267 11.7187 30.9395 11.7221 30.9494L11.5441 31.0403C11.5426 31.032 11.5382 31.0177 11.5313 30.9971C11.5244 30.9769 11.5161 30.9572 11.5062 30.938C11.4841 30.8943 11.4551 30.8603 11.4192 30.8358C11.3833 30.8112 11.3444 30.7974 11.3016 30.7945C11.2588 30.7915 11.217 30.8004 11.1752 30.8215L10.5915 31.119L10.498 30.9351Z" fill="#151616"/>
<path d="M10.8555 31.6226L11.7958 31.1062L11.8956 31.2877L10.9553 31.804L10.8555 31.6226ZM11.9915 31.118C11.9743 31.0866 11.9699 31.0536 11.9792 31.0192C11.9886 30.9848 12.0077 30.9597 12.0377 30.9434C12.0677 30.9267 12.0997 30.9238 12.1336 30.9346C12.1676 30.9454 12.1931 30.9666 12.2104 30.998C12.2276 31.0295 12.232 31.0625 12.2227 31.0969C12.2138 31.1313 12.1941 31.1564 12.1636 31.1731C12.1336 31.1893 12.1022 31.1923 12.0682 31.1815C12.0343 31.1706 12.0092 31.15 11.9915 31.118Z" fill="#151616"/>
<path d="M12.4956 32.3031L11.3783 32.5289L11.2637 32.3395L11.9817 31.4539L12.0968 31.6442L11.5297 32.3022L11.5356 32.3115L12.381 32.1138L12.4956 32.3031Z" fill="#151616"/>
<path d="M11.8551 33.3064C11.8167 33.2508 11.7921 33.1938 11.7823 33.1347C11.772 33.0757 11.7779 33.0192 11.7995 32.9656C11.8211 32.912 11.861 32.8653 11.919 32.8249C11.9687 32.7905 12.0164 32.7713 12.0616 32.7679C12.1069 32.7644 12.1501 32.7723 12.191 32.7915C12.2318 32.8107 12.2711 32.8367 12.3085 32.8702C12.3459 32.9031 12.3813 32.939 12.4147 32.9769C12.457 33.0251 12.4915 33.0639 12.5185 33.0939C12.5451 33.1239 12.5682 33.1426 12.5878 33.1515C12.607 33.1598 12.6272 33.1569 12.6478 33.1426L12.6518 33.1397C12.7019 33.1047 12.731 33.0639 12.7393 33.0172C12.7477 32.9705 12.7324 32.9193 12.6946 32.8643C12.6547 32.8072 12.611 32.7708 12.5628 32.7556C12.5146 32.7403 12.4708 32.7374 12.431 32.7462L12.3567 32.5609C12.4236 32.5427 12.486 32.5402 12.5446 32.554C12.6031 32.5677 12.6562 32.5928 12.7049 32.6302C12.7536 32.6676 12.7954 32.7123 12.8323 32.7649C12.8564 32.7998 12.878 32.8397 12.8972 32.8844C12.9164 32.9292 12.9267 32.9764 12.9287 33.0261C12.9306 33.0757 12.9193 33.1254 12.8937 33.1751C12.8687 33.2252 12.8239 33.2724 12.7595 33.3172L12.1742 33.7234L12.0592 33.5572L12.1797 33.4736L12.1747 33.4667C12.1447 33.4711 12.1118 33.4696 12.0749 33.4628C12.038 33.4559 12.0006 33.4396 11.9628 33.4151C11.9244 33.391 11.8885 33.3546 11.8551 33.3064ZM12.0183 33.2479C12.0508 33.2951 12.0882 33.3285 12.1305 33.3492C12.1723 33.3698 12.2151 33.3782 12.2574 33.3747C12.3001 33.3713 12.339 33.3575 12.3734 33.3334L12.487 33.2547C12.4767 33.2528 12.4629 33.2454 12.4457 33.2316C12.4285 33.2179 12.4108 33.2016 12.3916 33.182C12.3729 33.1623 12.3547 33.1431 12.3375 33.1244C12.3203 33.1057 12.3056 33.0895 12.2942 33.0772C12.2672 33.0472 12.2392 33.0221 12.2106 33.002C12.1821 32.9818 12.1526 32.97 12.1231 32.9671C12.0931 32.9636 12.0631 32.973 12.0326 32.9941C11.9903 33.0236 11.9687 33.0615 11.9687 33.1077C11.9687 33.1524 11.9854 33.1997 12.0183 33.2479Z" fill="#151616"/>
<path d="M12.6424 34.3582C12.5775 34.278 12.5401 34.1944 12.5303 34.1074C12.5205 34.0203 12.5352 33.9348 12.5755 33.8516C12.6154 33.7685 12.6773 33.6928 12.7609 33.6254C12.8455 33.5571 12.9331 33.5123 13.0236 33.4912C13.114 33.47 13.2006 33.4735 13.2837 33.5015C13.3668 33.5295 13.4396 33.5822 13.5026 33.6599C13.5532 33.7228 13.5871 33.7882 13.6034 33.8561C13.6196 33.9239 13.6191 33.9903 13.6019 34.0547C13.5842 34.1192 13.5498 34.1767 13.4986 34.2278L13.3717 34.0715C13.4037 34.0311 13.4214 33.9844 13.4249 33.9308C13.4283 33.8772 13.4091 33.8251 13.3678 33.7735C13.3314 33.7287 13.2881 33.6992 13.237 33.6849C13.1858 33.6707 13.1313 33.6717 13.0727 33.6884C13.0142 33.7051 12.9552 33.7376 12.8957 33.7853C12.8347 33.8344 12.79 33.8861 12.7604 33.9402C12.7309 33.9943 12.7177 34.0479 12.7206 34.101C12.7236 34.1541 12.7432 34.2033 12.7801 34.249C12.8047 34.2795 12.8327 34.3026 12.8647 34.3183C12.8962 34.3341 12.9296 34.3419 12.965 34.3414C13.0004 34.341 13.0354 34.3321 13.0713 34.3149L13.1981 34.4713C13.1396 34.5091 13.0772 34.5308 13.0113 34.5362C12.9454 34.5416 12.8804 34.5298 12.817 34.5008C12.7536 34.4708 12.695 34.4236 12.6424 34.3582Z" fill="#151616"/>
<path d="M12.9288 35.2784C12.9072 35.2562 12.8895 35.2341 12.8757 35.2125C12.8619 35.1908 12.8521 35.1736 12.8477 35.1608L13.0055 35.0782C13.0242 35.1126 13.0444 35.1402 13.066 35.1603C13.0877 35.1805 13.1137 35.1918 13.1447 35.1938C13.1757 35.1957 13.2145 35.1864 13.2608 35.1662L13.3301 35.1353L13.8445 34.1016L13.998 34.2614L13.5839 35.0325L13.5917 35.0403L14.3786 34.6578L14.5325 34.8181L13.3522 35.3448C13.2976 35.3688 13.246 35.3831 13.1958 35.3875C13.1462 35.392 13.099 35.3851 13.0547 35.3674C13.0104 35.3492 12.9686 35.3197 12.9288 35.2784Z" fill="#151616"/>
<path d="M14.7103 36.3946C14.6345 36.3376 14.5794 36.2741 14.546 36.2053C14.5121 36.1359 14.4988 36.0666 14.5057 35.9963C14.5126 35.9259 14.5386 35.8601 14.5848 35.7991C14.6198 35.7524 14.6606 35.7184 14.7073 35.6968C14.754 35.6751 14.8057 35.6614 14.8632 35.6565C14.9207 35.6515 14.9837 35.6501 15.052 35.653L15.3324 35.6604C15.3786 35.6633 15.4194 35.6599 15.4538 35.6501C15.4883 35.6402 15.5183 35.6186 15.5438 35.5847C15.564 35.5581 15.5719 35.5237 15.5674 35.4819C15.563 35.4401 15.5419 35.4047 15.5035 35.3762C15.477 35.356 15.4489 35.3452 15.4189 35.3432C15.3889 35.3412 15.3609 35.3462 15.3343 35.358C15.3078 35.3698 15.2861 35.387 15.2694 35.4091C15.2497 35.4352 15.237 35.4666 15.2316 35.504C15.2257 35.5409 15.2237 35.5822 15.2252 35.627C15.2266 35.6722 15.2281 35.7189 15.2301 35.7676L15.2778 36.7979L15.0909 36.6572L15.0447 35.8133C15.0407 35.7425 15.0378 35.6756 15.0358 35.6137C15.0334 35.5517 15.0378 35.4932 15.0481 35.4391C15.0584 35.385 15.0811 35.3348 15.116 35.2886C15.1553 35.236 15.2025 35.1986 15.2571 35.1755C15.3117 35.1529 15.3688 35.146 15.4293 35.1549C15.4893 35.1642 15.5483 35.1903 15.6058 35.2335C15.6638 35.2773 15.7056 35.3265 15.7302 35.3811C15.7548 35.4357 15.7642 35.4902 15.7583 35.5448C15.7524 35.5994 15.7327 35.6496 15.6992 35.6938C15.6584 35.7479 15.6088 35.7858 15.5507 35.8074C15.4927 35.8286 15.4273 35.8389 15.3545 35.8384L14.9999 35.8364C14.9311 35.836 14.876 35.8448 14.8352 35.864C14.7939 35.8827 14.7668 35.9014 14.7535 35.9191C14.7289 35.952 14.7147 35.9884 14.7103 36.0287C14.7058 36.0691 14.7127 36.1094 14.7304 36.1492C14.7481 36.189 14.7776 36.224 14.8184 36.2549C14.8602 36.2864 14.9084 36.3081 14.9621 36.3199C15.0157 36.3317 15.0722 36.3322 15.1307 36.3223C15.1893 36.3125 15.2468 36.2903 15.3024 36.2564C15.3579 36.2225 15.4081 36.1758 15.4534 36.1158L15.6029 36.2284C15.5473 36.3022 15.4922 36.3582 15.4376 36.3961C15.383 36.4339 15.3319 36.4605 15.2842 36.4748C15.2365 36.489 15.1961 36.4974 15.1622 36.4994C15.1509 36.5003 15.1406 36.5013 15.1298 36.5033C15.1194 36.5048 15.1086 36.5062 15.0973 36.5072C15.0294 36.5175 14.9616 36.5112 14.8932 36.489C14.8239 36.4649 14.7629 36.4339 14.7103 36.3946Z" fill="#151616"/>
<path d="M17.1828 36.6135C17.204 36.5506 17.1981 36.491 17.1651 36.4355C17.1322 36.3799 17.0791 36.3347 17.0053 36.3002C16.9527 36.2757 16.903 36.2629 16.8568 36.2614C16.8105 36.2599 16.7702 36.2688 16.7353 36.2879C16.7009 36.3071 16.6748 36.3347 16.6576 36.3715C16.6433 36.4025 16.6379 36.4325 16.6419 36.4615C16.6458 36.4906 16.6561 36.5181 16.6728 36.5442C16.6896 36.5702 16.7092 36.5943 16.7314 36.6169C16.754 36.6396 16.7761 36.6597 16.7983 36.6779L16.9084 36.7694C16.9448 36.7984 16.9802 36.8318 17.0151 36.8692C17.05 36.9066 17.0796 36.9479 17.1032 36.9936C17.1268 37.0389 17.14 37.0881 17.1435 37.1407C17.1469 37.1933 17.1346 37.2484 17.1076 37.3064C17.0732 37.3797 17.024 37.4362 16.9601 37.4756C16.8961 37.5149 16.8209 37.5346 16.7348 37.5346C16.6487 37.5346 16.5553 37.511 16.455 37.4638C16.3586 37.419 16.2829 37.3644 16.2268 37.301C16.1707 37.2376 16.1363 37.1677 16.123 37.0925C16.1097 37.0172 16.1191 36.9395 16.1515 36.8594L16.3458 36.9504C16.3276 36.999 16.3247 37.0448 16.3365 37.0886C16.3483 37.1323 16.3719 37.1707 16.4063 37.2051C16.4407 37.2395 16.483 37.2685 16.5327 37.2917C16.5873 37.3172 16.6404 37.3315 16.6915 37.3339C16.7427 37.3364 16.7879 37.3275 16.8273 37.3079C16.8666 37.2877 16.8961 37.2567 16.9158 37.2149C16.934 37.1766 16.9374 37.1402 16.9276 37.1058C16.9173 37.0713 16.8981 37.0374 16.8691 37.0045C16.8401 36.9715 16.8051 36.9381 16.7648 36.9041L16.6325 36.7915C16.543 36.7153 16.481 36.6356 16.4466 36.5525C16.4122 36.4694 16.4161 36.3829 16.4584 36.2929C16.4933 36.2181 16.544 36.1625 16.6099 36.1257C16.6758 36.0888 16.7505 36.0706 16.8337 36.0716C16.9168 36.0726 17.0014 36.0932 17.0874 36.1335C17.1745 36.1743 17.2438 36.2255 17.2964 36.2875C17.3491 36.3494 17.3815 36.4163 17.3948 36.4881C17.4081 36.5599 17.3992 36.6312 17.3687 36.7015L17.1828 36.6135Z" fill="#151616"/>
<path d="M17.7221 37.9343C17.6232 37.9058 17.5445 37.8586 17.4865 37.7927C17.4285 37.7268 17.3916 37.6481 17.3768 37.5571C17.3616 37.4661 17.369 37.3688 17.399 37.2655C17.429 37.1607 17.4752 37.0737 17.5372 37.0049C17.5991 36.9355 17.6724 36.8888 17.7565 36.8637C17.8406 36.8386 17.9306 36.8401 18.027 36.8681C18.1047 36.8903 18.1696 36.9247 18.2222 36.9709C18.2749 37.0171 18.3122 37.0717 18.3349 37.1347C18.3575 37.1971 18.3624 37.2645 18.3491 37.3358L18.1554 37.2802C18.1588 37.2291 18.1465 37.1804 18.1185 37.1347C18.0904 37.0889 18.0447 37.057 17.9818 37.0388C17.9262 37.023 17.8736 37.0235 17.8239 37.0407C17.7742 37.058 17.73 37.0904 17.6911 37.1376C17.6523 37.1848 17.6227 37.2453 17.6016 37.3186C17.58 37.3938 17.5726 37.4622 17.5795 37.5232C17.5864 37.5842 17.606 37.6358 17.639 37.6776C17.6719 37.7194 17.7162 37.7484 17.7727 37.7646C17.8106 37.7755 17.8465 37.7784 17.8814 37.773C17.9163 37.7676 17.9483 37.7548 17.9768 37.7346C18.0054 37.7145 18.0295 37.6869 18.0486 37.652L18.2424 37.7076C18.2163 37.772 18.1775 37.8256 18.1263 37.8674C18.0752 37.9092 18.0157 37.9368 17.9468 37.9495C17.8775 37.9628 17.8027 37.9574 17.7221 37.9343Z" fill="#151616"/>
<path d="M18.8002 38.1657C18.7333 38.1568 18.6748 38.1367 18.6236 38.1042C18.573 38.0722 18.5351 38.0299 18.51 37.9778C18.4849 37.9257 18.4771 37.8647 18.4859 37.7949C18.4938 37.7349 18.5115 37.6867 18.5395 37.6513C18.5676 37.6154 18.6025 37.5888 18.6443 37.5711C18.6861 37.5534 18.7318 37.5421 18.7815 37.5367C18.8312 37.5313 18.8813 37.5288 18.932 37.5293C18.9959 37.5303 19.048 37.5308 19.0879 37.5308C19.1277 37.5308 19.1577 37.5269 19.1769 37.518C19.1961 37.5092 19.2074 37.4924 19.2108 37.4674L19.2113 37.4624C19.2192 37.402 19.2084 37.3528 19.1789 37.3154C19.1494 37.278 19.1017 37.2549 19.0353 37.2461C18.9659 37.2372 18.9099 37.2456 18.8661 37.2711C18.8223 37.2967 18.7908 37.3272 18.7707 37.3626L18.5838 37.2933C18.6148 37.2318 18.6551 37.1836 18.7048 37.1492C18.7544 37.1148 18.809 37.0926 18.8685 37.0818C18.9285 37.071 18.9905 37.0695 19.0539 37.0779C19.0962 37.0833 19.14 37.0941 19.1862 37.1103C19.2325 37.1266 19.2743 37.1502 19.3121 37.1821C19.35 37.2136 19.379 37.2559 19.3997 37.308C19.4198 37.3602 19.4248 37.4251 19.4149 37.5028L19.3235 38.2094L19.1228 38.1834L19.1415 38.0378L19.1331 38.0368C19.1164 38.0619 19.0933 38.0855 19.0633 38.1081C19.0333 38.1308 18.9964 38.1475 18.9526 38.1593C18.9094 38.1711 18.8582 38.1735 18.8002 38.1657ZM18.8666 38.0054C18.9231 38.0127 18.9733 38.0078 19.0166 37.9901C19.0599 37.9729 19.0948 37.9468 19.1208 37.9129C19.1469 37.879 19.1626 37.8411 19.168 37.7988L19.1857 37.6616C19.1774 37.668 19.1626 37.6729 19.141 37.6764C19.1194 37.6798 19.0948 37.6823 19.0677 37.6832C19.0407 37.6842 19.0141 37.6847 18.9885 37.6852C18.963 37.6852 18.9413 37.6857 18.9241 37.6857C18.8838 37.6857 18.8464 37.6896 18.812 37.697C18.7776 37.7049 18.7495 37.7187 18.7269 37.7383C18.7048 37.7585 18.691 37.7865 18.6861 37.8234C18.6797 37.8745 18.693 37.9159 18.7274 37.9468C18.7623 37.9788 18.8085 37.998 18.8666 38.0054Z" fill="#151616"/>
<path d="M19.9324 36.795L19.8985 38.225L19.6914 38.2201L19.7253 36.79L19.9324 36.795Z" fill="#151616"/>
<path d="M20.2891 36.9819C20.2532 36.9829 20.2217 36.972 20.1957 36.9484C20.1696 36.9248 20.1553 36.8963 20.1544 36.8624C20.1534 36.8279 20.1652 36.798 20.1898 36.7729C20.2144 36.7478 20.2448 36.7345 20.2807 36.733C20.3166 36.7316 20.3481 36.7429 20.3742 36.7665C20.4002 36.7901 20.4145 36.8191 20.4155 36.8535C20.4165 36.8875 20.4047 36.917 20.3801 36.9425C20.3555 36.9676 20.325 36.9809 20.2891 36.9819ZM20.2266 38.2231L20.1903 37.1506L20.3973 37.1437L20.4337 38.2162L20.2266 38.2231Z" fill="#151616"/>
<path d="M20.9193 37.5448L21.0015 38.1768L20.7964 38.2033L20.6582 37.1391L20.8549 37.1136L20.8775 37.2867L20.8908 37.2852C20.9075 37.2257 20.94 37.1755 20.9872 37.1347C21.0344 37.0939 21.0979 37.0683 21.177 37.058C21.2488 37.0486 21.3138 37.0555 21.3718 37.0786C21.4298 37.1018 21.4775 37.1411 21.5149 37.1972C21.5523 37.2527 21.5769 37.3245 21.5882 37.4126L21.6762 38.0892L21.4711 38.1158L21.3865 37.4642C21.3767 37.387 21.3487 37.3294 21.3034 37.2906C21.2582 37.2522 21.2006 37.2375 21.1308 37.2463C21.0831 37.2522 21.0423 37.2685 21.0084 37.294C20.9744 37.3196 20.9489 37.3535 20.9331 37.3963C20.9164 37.4391 20.912 37.4883 20.9193 37.5448Z" fill="#151616"/>
<path d="M22.6186 38.2973C22.5374 38.3204 22.4647 38.3292 22.3997 38.3238C22.3353 38.3189 22.2797 38.3037 22.233 38.2786C22.1863 38.2535 22.1474 38.2225 22.1174 38.1856L22.2684 38.0661C22.2861 38.0824 22.3078 38.0991 22.3343 38.1153C22.3609 38.1315 22.3938 38.1429 22.4332 38.1488C22.4725 38.1547 22.5197 38.1497 22.5748 38.1345C22.6505 38.1133 22.7076 38.077 22.7464 38.0263C22.7853 37.9757 22.7932 37.9098 22.7705 37.8291L22.7135 37.626L22.7007 37.6295C22.6948 37.655 22.6845 37.684 22.6697 37.7175C22.655 37.7509 22.6309 37.7829 22.5969 37.8134C22.563 37.8439 22.5153 37.8684 22.4528 37.8862C22.3722 37.9088 22.294 37.9103 22.2183 37.8901C22.143 37.8699 22.0756 37.8276 22.0171 37.7632C21.9586 37.6988 21.9138 37.6117 21.8829 37.5016C21.8519 37.3919 21.844 37.2926 21.8588 37.2036C21.8735 37.1146 21.9079 37.0403 21.9611 36.9798C22.0142 36.9198 22.0815 36.878 22.1637 36.8549C22.2271 36.8372 22.2817 36.8333 22.3265 36.8436C22.3717 36.8539 22.4091 36.8702 22.4391 36.8923C22.4691 36.9144 22.4932 36.9346 22.5109 36.9528L22.5256 36.9488L22.4784 36.7816L22.6737 36.7266L22.9712 37.7819C22.9963 37.8704 22.9963 37.9491 22.9717 38.0175C22.9471 38.0858 22.9033 38.1433 22.8419 38.1906C22.7804 38.2373 22.7056 38.2732 22.6186 38.2973ZM22.4504 37.7071C22.5079 37.6909 22.5522 37.6639 22.5846 37.6255C22.6166 37.5872 22.6358 37.5395 22.6422 37.4829C22.6486 37.4263 22.6417 37.3624 22.6215 37.2911C22.6019 37.2218 22.5743 37.1633 22.5394 37.116C22.504 37.0688 22.4627 37.0359 22.4145 37.0172C22.3663 36.9985 22.3137 36.9975 22.2551 37.0138C22.1951 37.0305 22.1494 37.0605 22.1184 37.1028C22.0874 37.1451 22.0692 37.1957 22.0638 37.2547C22.0584 37.3137 22.0653 37.3762 22.084 37.4421C22.1032 37.51 22.1302 37.5665 22.1647 37.6117C22.1991 37.657 22.2409 37.6885 22.2896 37.7057C22.3373 37.7234 22.3909 37.7239 22.4504 37.7071Z" fill="#151616"/>
<path d="M23.8881 37.3845L23.2207 36.1192L24.0066 35.7046L24.0931 35.8688L23.4961 36.1836L23.6992 36.5691L24.2549 36.276L24.3415 36.4398L23.7858 36.7329L23.9904 37.1204L24.5948 36.8017L24.6813 36.966L23.8881 37.3845Z" fill="#151616"/>
<path d="M24.514 35.7941L24.9463 36.0002L24.8991 35.5222L25.084 35.3918L25.1224 36.0213L25.7046 36.2672L25.5197 36.3975L25.0929 36.2077L25.1288 36.6729L24.9434 36.8037L24.9045 36.1747L24.3281 35.9244L24.514 35.7941Z" fill="#151616"/>
<path d="M26.218 36.3706L25.2324 35.2725L25.3829 35.1377L25.499 35.2671L25.5118 35.2558C25.5059 35.2312 25.5014 35.2002 25.4985 35.1633C25.4955 35.1264 25.5019 35.0861 25.5172 35.0428C25.5324 34.9996 25.5644 34.9558 25.6136 34.912C25.6775 34.8545 25.7493 34.8196 25.8285 34.8073C25.9077 34.795 25.9893 34.8063 26.0734 34.8422C26.157 34.8776 26.2376 34.9386 26.3154 35.0251C26.3926 35.1112 26.4447 35.1982 26.4717 35.2853C26.4988 35.3723 26.5017 35.4549 26.4816 35.5326C26.4614 35.6103 26.4196 35.6782 26.3557 35.7352C26.3075 35.7785 26.2613 35.8056 26.216 35.8164C26.1708 35.8272 26.1299 35.8297 26.0936 35.8233C26.0572 35.8169 26.0262 35.8095 26.0016 35.8007L25.9922 35.809L26.3724 36.2329L26.218 36.3706ZM25.7419 35.5366C25.7921 35.5926 25.8447 35.6349 25.8988 35.6625C25.9529 35.69 26.006 35.7023 26.0577 35.6989C26.1093 35.6954 26.1575 35.6733 26.2017 35.6339C26.248 35.5926 26.275 35.5459 26.2839 35.4933C26.2927 35.4407 26.2858 35.3861 26.2632 35.329C26.2411 35.272 26.2057 35.2169 26.158 35.1633C26.1108 35.1107 26.0606 35.0704 26.007 35.0423C25.9539 35.0143 25.9008 35.002 25.8477 35.0059C25.7945 35.0094 25.7454 35.032 25.6986 35.0738C25.6539 35.1141 25.6268 35.1594 25.617 35.21C25.6072 35.2607 25.6131 35.3143 25.6342 35.3699C25.6554 35.4254 25.6918 35.481 25.7419 35.5366Z" fill="#151616"/>
<path d="M25.9825 34.0652L27.0177 35.0527L26.8751 35.2026L25.8398 34.2152L25.9825 34.0652Z" fill="#151616"/>
<path d="M27.5548 34.4761C27.4914 34.5528 27.4181 34.6049 27.335 34.633C27.2519 34.6605 27.1658 34.6639 27.0758 34.6428C26.9858 34.6216 26.8983 34.5754 26.8127 34.5046C26.7271 34.4333 26.6652 34.3556 26.6273 34.271C26.5894 34.1864 26.5761 34.1004 26.5884 34.0138C26.6002 33.9273 26.6381 33.8456 26.7015 33.7689C26.765 33.6922 26.8383 33.6401 26.9214 33.612C27.0045 33.5845 27.091 33.5811 27.1815 33.6027C27.272 33.6243 27.3601 33.6706 27.4456 33.7419C27.5312 33.8127 27.5922 33.8904 27.63 33.975C27.6674 34.0596 27.6802 34.1451 27.6684 34.2317C27.6561 34.3177 27.6182 34.3994 27.5548 34.4761ZM27.4201 34.3635C27.4614 34.3138 27.482 34.2617 27.483 34.2071C27.4835 34.1525 27.4682 34.0989 27.4373 34.0468C27.4063 33.9942 27.3645 33.9464 27.3114 33.9022C27.2587 33.8584 27.2037 33.826 27.1461 33.8053C27.0886 33.7847 27.033 33.7792 26.9789 33.7896C26.9248 33.7999 26.8771 33.8299 26.8363 33.8796C26.795 33.9297 26.7738 33.9823 26.7733 34.0374C26.7729 34.0925 26.7886 34.1466 26.8196 34.1987C26.8506 34.2513 26.8929 34.2995 26.9455 34.3433C26.9986 34.3871 27.0537 34.4195 27.1107 34.4407C27.1678 34.4613 27.2233 34.4662 27.2769 34.4554C27.331 34.4441 27.3787 34.4136 27.4201 34.3635Z" fill="#151616"/>
<path d="M28.0258 33.842L27.1523 33.2184L27.2684 33.0556L27.4071 33.1545L27.4135 33.1456C27.3776 33.0965 27.3604 33.0419 27.3623 32.9824C27.3638 32.9229 27.3825 32.8678 27.4189 32.8171C27.4263 32.8068 27.4356 32.7945 27.4469 32.7803C27.4582 32.7665 27.4671 32.7557 27.474 32.7483L27.6368 32.8643C27.6299 32.8698 27.6191 32.8801 27.6043 32.8958C27.5895 32.9116 27.5758 32.9278 27.5635 32.945C27.535 32.9848 27.5182 33.0261 27.5128 33.0694C27.5074 33.1127 27.5133 33.1535 27.5305 33.1928C27.5473 33.2322 27.5748 33.2651 27.6127 33.2922L28.1458 33.6728L28.0258 33.842Z" fill="#151616"/>
<path d="M28.6678 32.9419C28.6324 32.999 28.5891 33.0442 28.539 33.0767C28.4888 33.1096 28.4347 33.1263 28.3767 33.1278C28.3191 33.1293 28.2601 33.1111 28.2006 33.0737C28.1495 33.0418 28.1131 33.0054 28.0919 32.965C28.0708 32.9247 28.061 32.8819 28.0624 32.8367C28.0639 32.7914 28.0723 32.7452 28.088 32.6975C28.1037 32.6503 28.1224 32.6036 28.1436 32.5579C28.1711 32.4998 28.1928 32.4526 28.21 32.4162C28.2272 32.3798 28.235 32.3513 28.235 32.3302C28.235 32.309 28.2242 32.2918 28.2031 32.2785L28.1991 32.2761C28.1475 32.2436 28.0983 32.2333 28.0521 32.2441C28.0059 32.2549 27.9646 32.2889 27.9292 32.3459C27.8923 32.4049 27.8765 32.4595 27.8814 32.5102C27.8869 32.5603 27.9011 32.6021 27.9252 32.6351L27.7846 32.7767C27.7413 32.7226 27.7147 32.666 27.7039 32.607C27.6931 32.548 27.6956 32.489 27.7108 32.43C27.726 32.371 27.7506 32.3139 27.7846 32.2598C27.8072 32.2239 27.8352 32.188 27.8687 32.1531C27.9026 32.1177 27.9414 32.0897 27.9862 32.0681C28.031 32.0464 28.0811 32.0376 28.1367 32.041C28.1928 32.0444 28.2537 32.0666 28.3201 32.1079L28.925 32.4846L28.8183 32.6562L28.6939 32.5785L28.6895 32.5854C28.7052 32.611 28.717 32.6419 28.7254 32.6788C28.7332 32.7152 28.7337 32.756 28.7259 32.8008C28.718 32.845 28.6988 32.8923 28.6678 32.9419ZM28.5493 32.8155C28.5798 32.7669 28.596 32.7192 28.598 32.6724C28.6 32.6257 28.5911 32.5834 28.5714 32.5456C28.5518 32.5077 28.5232 32.4777 28.4873 32.4551L28.3698 32.3818C28.3723 32.3921 28.3708 32.4079 28.3649 32.429C28.359 32.4502 28.3511 32.4733 28.3408 32.4983C28.3305 32.5234 28.3201 32.5475 28.3093 32.5711C28.299 32.5947 28.2901 32.6139 28.2832 32.6297C28.2665 32.6665 28.2542 32.7019 28.2473 32.7364C28.24 32.7708 28.2409 32.8023 28.2498 32.8308C28.2587 32.8593 28.2788 32.8834 28.3103 32.9031C28.3541 32.9306 28.3973 32.935 28.4396 32.9168C28.4819 32.8991 28.5183 32.8652 28.5493 32.8155Z" fill="#151616"/>
<path d="M27.9492 31.5006L28.0486 31.3191L28.9397 31.8055C28.9751 31.8251 29.0046 31.834 29.0282 31.8335C29.0518 31.833 29.0715 31.8256 29.0867 31.8123C29.102 31.7991 29.1153 31.7823 29.1261 31.7627C29.1339 31.7479 29.1398 31.7346 29.1438 31.7228C29.1477 31.711 29.1507 31.7012 29.1526 31.6948L29.3218 31.7445C29.3203 31.7573 29.3164 31.7745 29.31 31.7961C29.3036 31.8177 29.2928 31.8433 29.2771 31.8728C29.252 31.921 29.219 31.9608 29.1782 31.9923C29.1374 32.0238 29.0917 32.042 29.04 32.0469C28.9884 32.0518 28.9343 32.039 28.8777 32.0081L27.9492 31.5006ZM28.3786 31.2502L28.5256 31.3304L28.2472 31.8404L28.1002 31.7602L28.3786 31.2502Z" fill="#151616"/>
<path d="M28.3783 30.8868C28.3621 30.9187 28.3375 30.9409 28.3041 30.9532C28.2706 30.965 28.2386 30.9635 28.2086 30.9482C28.1777 30.933 28.157 30.9084 28.1467 30.8745C28.1364 30.8405 28.1393 30.8076 28.155 30.7756C28.1708 30.7437 28.1959 30.7215 28.2293 30.7092C28.2627 30.6974 28.2947 30.6989 28.3257 30.7142C28.3562 30.7294 28.3763 30.754 28.3872 30.7879C28.3975 30.8214 28.3945 30.8543 28.3783 30.8868ZM29.4396 31.5334L28.4796 31.054L28.5721 30.8691L29.5321 31.3485L29.4396 31.5334Z" fill="#151616"/>
<path d="M29.8752 30.6605C29.8348 30.752 29.7788 30.8223 29.707 30.8715C29.6347 30.9206 29.5526 30.9477 29.4601 30.9521C29.3676 30.9565 29.2708 30.9359 29.1694 30.8916C29.0676 30.8469 28.987 30.7888 28.927 30.7175C28.8675 30.6462 28.8311 30.5676 28.8188 30.481C28.8065 30.3944 28.8203 30.3054 28.8606 30.2145C28.9009 30.1235 28.957 30.0527 29.0288 30.0035C29.1011 29.9543 29.1832 29.9273 29.2762 29.9233C29.3691 29.9194 29.4665 29.9396 29.5683 29.9848C29.6696 30.0296 29.7503 30.0871 29.8093 30.1584C29.8688 30.2292 29.9047 30.3079 29.9165 30.3944C29.9293 30.48 29.9155 30.569 29.8752 30.6605ZM29.7148 30.5892C29.7409 30.5302 29.7468 30.4741 29.7321 30.4215C29.7173 30.3689 29.6883 30.3217 29.644 30.2799C29.5998 30.2381 29.5462 30.2031 29.4832 30.1756C29.4207 30.1481 29.3588 30.1323 29.2978 30.1279C29.2368 30.1235 29.1817 30.1338 29.1331 30.1584C29.0839 30.183 29.0465 30.2253 29.0204 30.2843C28.9944 30.3438 28.9885 30.4003 29.0032 30.4535C29.018 30.5066 29.0475 30.5543 29.0917 30.5961C29.136 30.6379 29.1896 30.6728 29.2521 30.7003C29.315 30.7279 29.377 30.7441 29.438 30.7485C29.4985 30.7529 29.5535 30.7421 29.6022 30.717C29.6514 30.691 29.6888 30.6487 29.7148 30.5892Z" fill="#151616"/>
<path d="M29.6323 29.5128L30.2333 29.7243L30.1645 29.9195L29.1523 29.563L29.2182 29.3756L29.383 29.4336L29.3874 29.4213C29.3422 29.3795 29.3117 29.3279 29.2964 29.2674C29.2812 29.2064 29.2871 29.1386 29.3137 29.0633C29.3377 28.995 29.3732 28.9404 29.4199 28.8991C29.4666 28.8578 29.5236 28.8332 29.59 28.8248C29.6564 28.8165 29.7317 28.8268 29.8153 28.8563L30.459 29.083L30.3902 29.2782L29.77 29.0599C29.6968 29.0343 29.6323 29.0328 29.5777 29.056C29.5232 29.0791 29.4838 29.1238 29.4607 29.1902C29.445 29.2355 29.4405 29.2792 29.4479 29.321C29.4553 29.3628 29.4745 29.4007 29.5055 29.4346C29.5364 29.4676 29.5787 29.4941 29.6323 29.5128Z" fill="#151616"/>
<path d="M29.9179 19.6028H29.7949V27.5119H29.9179V19.6028Z" fill="#151616"/>
<path d="M9.99014 19.6028H9.86719V27.5119H9.99014V19.6028Z" fill="#151616"/>
<path d="M29.7459 12.3838C29.7454 12.3671 29.6692 10.7103 29.1779 9.26058C28.6886 7.81675 27.1871 6.3916 27.1719 6.37783L27.256 6.28833C27.2712 6.30259 28.7948 7.74839 29.294 9.22124C29.7912 10.6882 29.8674 12.3622 29.8684 12.3789L29.7459 12.3838Z" fill="#151616"/>
<path d="M9.99014 12.3838L9.86719 12.3784C9.86768 12.3617 9.9444 10.6877 10.4416 9.22075C10.9408 7.7479 12.4643 6.3021 12.4796 6.28784L12.5637 6.37734C12.5484 6.39161 11.047 7.81675 10.5577 9.26009C10.0664 10.7103 9.99063 12.3671 9.99014 12.3838Z" fill="#151616"/>
</svg>
